<?xml version="1.0" encoding="UTF-8"?>
<!DOCTYPE svg PUBLIC "-//W3C//DTD SVG 1.1//EN" "http://www.w3.org/Graphics/SVG/1.1/DTD/svg11.dtd">
<!-- Creator: CorelDRAW (Versão de avaliação) -->
<svg xmlns="http://www.w3.org/2000/svg" xml:space="preserve" width="210mm" height="210mm" version="1.1" style="shape-rendering:geometricPrecision; text-rendering:geometricPrecision; image-rendering:optimizeQuality; fill-rule:evenodd; clip-rule:evenodd"
viewBox="0 0 21000 21000"
 xmlns:xlink="http://www.w3.org/1999/xlink"
 xmlns:xodm="http://www.corel.com/coreldraw/odm/2003">
 <defs>
  <style type="text/css">
   <![CDATA[
    .str0 {stroke:black;stroke-width:211.67;stroke-miterlimit:22.9256}
    .fil0 {fill:none}
    .fil7 {fill:url(#id0);fill-rule:nonzero}
    .fil6 {fill:url(#id1);fill-rule:nonzero}
    .fil4 {fill:url(#id2);fill-rule:nonzero}
    .fil2 {fill:url(#id3);fill-rule:nonzero}
    .fil3 {fill:url(#id4);fill-rule:nonzero}
    .fil5 {fill:url(#id5);fill-rule:nonzero}
    .fil1 {fill:url(#id6);fill-rule:nonzero}
   ]]>
  </style>
  <linearGradient id="id0" gradientUnits="userSpaceOnUse" x1="10137.61" y1="17282.54" x2="10848.12" y2="14811.27">
   <stop offset="0" style="stop-opacity:1; stop-color:#00D1FF"/>
   <stop offset="1" style="stop-opacity:1; stop-color:#B0EAFF"/>
  </linearGradient>
  <linearGradient id="id1" gradientUnits="userSpaceOnUse" xlink:href="#id0" x1="6196.6" y1="15170.03" x2="7435.1" y2="14546.83">
  </linearGradient>
  <linearGradient id="id2" gradientUnits="userSpaceOnUse" xlink:href="#id0" x1="9739.04" y1="13970.03" x2="11247.26" y2="13723.76">
  </linearGradient>
  <linearGradient id="id3" gradientUnits="userSpaceOnUse" xlink:href="#id0" x1="13397.59" y1="12225.62" x2="14941.19" y2="12106.49">
  </linearGradient>
  <linearGradient id="id4" gradientUnits="userSpaceOnUse" xlink:href="#id0" x1="11565.43" y1="13198.74" x2="13098.92" y2="13030.19">
  </linearGradient>
  <linearGradient id="id5" gradientUnits="userSpaceOnUse" xlink:href="#id0" x1="7922.21" y1="14556.61" x2="9384.57" y2="14187.48">
  </linearGradient>
  <linearGradient id="id6" gradientUnits="userSpaceOnUse" xlink:href="#id0" x1="12119.62" y1="14804.78" x2="14770.94" y2="7731.95">
  </linearGradient>
 </defs>
 <g id="Camada_x0020_1">
  <metadata id="CorelCorpID_0Corel-Layer"/>
  <rect class="fil0" x="8.55" y="9.6" width="20968.64" height="20995.07"/>
  <g id="_1816326095488">
   <path class="fil1 str0" d="M13687.87 4572.4c48.82,-38.22 113.06,-26.66 170.56,-25.69 49.47,30.51 97.66,69.38 111.79,129.13 305.18,909.39 573.88,1804.75 896.2,2715.27 25.38,76.77 62.32,167.68 13.49,243.16 -36.62,74.2 -132.34,112.11 -210.39,87.7 -289.1,-96.05 -573.71,-205.27 -864.41,-297.13 -33.41,-11.25 -64.25,-27.31 -92.83,-47.87 -51.4,-6.1 -101.51,-17.35 -149.37,-35.97 -126.56,251.51 -236.42,513.31 -380.65,754.55 -198.19,405.05 -447.46,782.81 -693.51,1159.6 -336.64,471.87 -703.79,922.54 -1094.4,1349.77 -235.45,223.56 -455.16,465.77 -706.68,672.63 -188.56,188.23 -410.52,340.17 -607.43,517.48 -171.85,103.43 -315.12,252.81 -495.64,340.82 -75.81,89.3 -193.06,125.59 -276.25,205.9 -370.37,224.22 -742.02,449.07 -1132.94,636.66 -444.57,228.39 -913.88,402.48 -1377.72,585.59 -134.59,23.12 -255.04,100.21 -392.21,110.17 -74.2,53.97 -167.35,65.85 -253.76,88.33 -71.31,22.49 -97.01,-91.22 -41.75,-119.49 418.54,-194.98 842.87,-388.35 1231.87,-638.58 410.74,-212.36 927.03,-581.47 1300.62,-875.97 631.52,-510.74 1222.88,-1079.3 1717.25,-1724.63 142.3,-159.96 267.89,-334.39 385.78,-512.34 28.59,-27.31 48.82,-60.39 64.56,-96.05 299.38,-400.24 533.55,-845.13 781.21,-1277.49 33.73,-89.62 73.24,-178.28 128.49,-256.98 157.4,-368.76 336.64,-730.77 468.34,-1110.45 55.69,-147.52 43.94,-99.54 92.18,-254.41 -173.46,-64.56 -349.16,-122.07 -524.22,-181.49 -197.23,-94.76 -438.15,-106.32 -606.14,-253.45 -13.17,-77.73 -28.28,-175.7 43.04,-230.95 130.73,-96.04 271.11,-177.64 402.8,-272.4 147.37,-85.75 299.85,-197.07 441.68,-291.98 550.9,-363.63 1099.22,-730.78 1650.44,-1093.44z"/>
   <path class="fil2 str0" d="M13478.75 9058.88c60.39,-77.09 170.89,-69.7 258.91,-73.88 331.49,5.47 663.31,-3.21 994.81,3.85 102.79,2.58 176.03,101.83 171.53,200.12 2.89,1969.4 -1.28,3939.45 1.93,5909.17 0.32,60.06 -13.49,119.17 -28.59,177.32 -54.29,35.32 -110.82,74.51 -178.91,70.02 -342.43,1.93 -684.85,-0.64 -1027.27,1.28 -73.88,2.9 -158.68,-13.17 -201.72,-79.65 -53.33,-88.66 -31.48,-196.92 -35.34,-294.88 0.64,-1874.01 0.96,-3748.33 -0.32,-5622.65 4.5,-97.01 -18.63,-207.82 44.97,-290.7z"/>
   <path class="fil3 str0" d="M11717.5 10898.51c59.11,-23.77 124.64,-13.49 186.95,-16.06 333.1,4.5 666.53,-7.07 999.32,5.78 112.11,8.67 172.16,125.27 163.82,228.07 -0.32,1349.12 1.61,2698.89 -0.97,4048.01 -0.64,115.96 -122.06,187.28 -227.42,182.45 -351.09,-2.89 -702.51,1.61 -1053.93,-1.6 -99.25,-0.32 -190.8,-81.91 -187.91,-184.06 -1.28,-1360.04 -2.56,-2720.42 0.64,-4080.46 -9.95,-82.23 50.44,-148.72 119.5,-182.13z"/>
   <path class="fil4 str0" d="M9923.16 12351.39c361.05,-7.39 723.07,-1.93 1084.45,-2.57 81.26,-5.46 169.92,30.19 203.97,108.57 17.34,54.29 14.46,111.78 16.06,168 -3.22,845.77 2.57,1691.54 -2.89,2537.31 4.82,101.19 -90.26,186.64 -189.2,182.46 -362.66,1.93 -725.31,0.96 -1087.97,0.32 -98.62,2.89 -188.88,-83.84 -187.91,-182.78 -0.65,-867.29 -0.65,-1734.59 0,-2601.55 -10.28,-99.26 60.7,-202.05 163.49,-209.76z"/>
   <path class="fil5 str0" d="M7915.54 13553.07c35.98,-78.7 100.86,-159.97 197.22,-150.65 300.03,-11.25 600.69,1.6 901.03,-3.22 107.93,7.72 238.67,-28.9 322.18,61.36 57.5,46.9 54.61,124 55.25,191.45 -0.64,482.15 -0.64,964.62 0,1447.09 0.32,66.17 -6.1,139.1 -53.32,190.49 -48.82,53 -125.92,56.85 -193.37,56.85 -342.1,-1.28 -684.52,0 -1026.62,-0.32 -113.71,4.5 -210.4,-101.19 -201.09,-213.61 -1.28,-526.48 1.61,-1052.96 -1.28,-1579.44z"/>
   <path class="fil6 str0" d="M6231.06 14377.97c360.41,-13.82 722.11,-0.97 1083.16,-6.11 109.85,-10.92 234.81,59.1 232.88,180.85 8.03,202.69 4.81,406.02 0.96,608.71 1.93,104.72 -99.57,189.2 -201.08,184.38 -353.67,0.32 -707,0.64 -1060.67,-0.32 -100.54,5.14 -205.9,-77.42 -203.97,-182.13 -5.14,-192.42 -0.65,-385.14 -2.25,-577.56 -6.43,-93.79 57.17,-187.91 150.97,-207.82z"/>
   <path class="fil7 str0" d="M6173.24 15694.01c103.44,-86.42 243.49,-69.07 368.44,-68.1 2634.33,0 5268.65,0.31 7902.98,-0.32 117.24,4.17 250.22,-23.13 350.45,53.64 108.25,68.42 115.64,205.25 110.82,320.89 -5.78,122.07 26.01,264.05 -63.6,364.59 -48.83,81.27 -147.45,107.61 -236.74,104.72 -2698.89,-1.29 -5397.79,-0.32 -8096.67,-0.64 -114.03,-1.29 -246.7,18.95 -336.32,-69.07 -112.43,-88.01 -91.54,-244.12 -93.47,-370.04 0.63,-115.64 -11.57,-258.91 94.11,-335.67z"/>
  </g>
 </g>
</svg>
