<?xml version="1.0" encoding="UTF-8"?>
<!DOCTYPE svg PUBLIC "-//W3C//DTD SVG 1.1//EN" "http://www.w3.org/Graphics/SVG/1.1/DTD/svg11.dtd">
<!-- Creator: CorelDRAW (Versão de avaliação) -->
<svg xmlns="http://www.w3.org/2000/svg" xml:space="preserve" width="210mm" height="210mm" version="1.1" style="shape-rendering:geometricPrecision; text-rendering:geometricPrecision; image-rendering:optimizeQuality; fill-rule:evenodd; clip-rule:evenodd"
viewBox="0 0 21000 21000"
 xmlns:xlink="http://www.w3.org/1999/xlink"
 xmlns:xodm="http://www.corel.com/coreldraw/odm/2003">
 <defs>
  <style type="text/css">
   <![CDATA[
    .fil0 {fill:none}
    .fil4 {fill:#91D8F7}
    .fil3 {fill:#00AFEF}
    .fil2 {fill:#3E4095}
    .fil1 {fill:#1C1C1A}
    .fil5 {fill:white}
   ]]>
  </style>
 </defs>
 <g id="Camada_x0020_1">
  <metadata id="CorelCorpID_0Corel-Layer"/>
  <rect class="fil0" x="8.55" y="9.6" width="20968.64" height="20995.07"/>
  <path class="fil1" d="M11418.55 7056.57c-15.4,10.23 -360.55,86.14 -411.91,98.6 -67.22,16.31 -147.56,26.64 -190.77,64.89 -47.33,41.91 -80.36,92.27 -69.29,185.69 -99.85,-16.52 -189.81,-32.87 -294.62,-42.32 -615.96,-55.58 -1339.05,166.85 -1786.65,535.55 -221.01,182.06 -426.05,426.2 -577.48,757.62 -233.84,511.8 -327.74,1111.37 -186.07,1684.48 45.13,182.57 106.9,329.77 168.53,498.99 118.86,326.4 238.98,652.38 361.77,976.83 122.84,324.56 239.11,649.52 361.01,974.04 60.81,161.91 121.45,324.15 180.47,487.01 29.84,82.35 59.61,161.81 90.18,243.57 12.56,33.57 88.34,228.17 88.82,245.01 -100.07,12.22 -175.03,73.91 -189.72,177.39 -5.28,37.15 -4.91,143.91 3.55,178.99 11.71,48.55 45.69,95.54 73.41,111.65 -14.54,26.78 -55.63,37.11 -74.45,123.51 -8,36.7 -7.84,154.98 1.19,191.61 13.78,55.85 44.65,93.72 78.17,118.29 48.02,35.21 87.97,41.46 160.24,40.73 10,17.58 20.8,59.23 29,81.42 107.34,290.33 339.24,522.41 628.77,632.17 572.57,217.08 1199.01,-80.99 1406.01,-629.44 8.79,-23.28 20.87,-67.15 30.21,-84.08 70.98,0.17 107.98,-3.5 157.54,-39.53 34.92,-25.39 66.06,-59.39 80.98,-119.43 8.49,-34.18 8.82,-153.75 1.76,-188.93 -17.5,-87.24 -59.11,-98.59 -75.02,-126.05 84.35,-50.18 88.69,-195.07 77.33,-287.77 -12.2,-99.55 -89.08,-167.6 -190.25,-180.61 0.89,-20.6 767.52,-2077.23 772.35,-2090.27 129.69,-349.7 259.93,-697.06 389.04,-1046.11 67.7,-183.03 115.39,-367.1 140.08,-576.38 5.69,-48.27 24.49,-123.14 -21.33,-137.51 -26.43,-8.29 -82.82,31.72 -133.24,46.66 -91.16,27 -242.84,16.88 -343.98,16.88 -61.08,0 -116.24,-9.44 -98.82,68 12.06,53.57 13.59,107.57 2.89,161.34 -9.66,48.53 -28.14,90.09 -49.35,128.72 -21.69,39.5 -84.1,125.85 -122.42,148.24 -307.73,179.78 -680.67,-38.64 -650.88,-384.19 4.2,-48.71 34.11,-118.14 -30.86,-122.07 -83.13,-5.02 -265.25,-0.04 -359.58,-0.04 -59.33,0 -118.67,0 -178,0 -61.79,0 -122.09,10.19 -149.42,-33.23 -22.93,-36.42 -13.63,-117.22 -13.63,-164.33l0.07 -537.74c0.13,-30.94 -3.09,-52.38 -27.96,-61.56 -27.63,-10.2 -46.96,8.86 -66.74,19.01 -141.38,72.49 -299.13,56.37 -429.44,-19.4 -49.7,-28.89 -65,-37.84 -95.15,-82.76 -140.38,-209.1 -99.87,-483.4 114.16,-619.7 83.85,-53.41 175.28,-69.4 290.42,-55.96 -12.87,198.68 75.35,382.17 243.86,479.67 149.26,86.37 344,99.63 500.25,10.02 20.39,-11.69 40.44,-27.09 56.32,-34.78 12.83,25.39 106.61,452.29 123.19,520.53 17.45,71.75 31.54,109.5 74.77,144.01 100.93,80.57 218.73,26.56 341.3,-0.98 53.63,-12.05 321.89,-81.65 353.17,-79.97 18.03,209.49 203.92,406.46 372.25,441.95 306.08,64.54 594.34,-128.66 628.41,-431.69 4.79,-42.69 4.88,-86.16 -1.33,-128.38 -6.62,-45.01 -18.04,-72.62 -28.25,-112.48 63.3,-9.66 435.17,-99.26 517.9,-120.19 84.83,-21.46 142.56,-71.42 155.59,-163.35 8.53,-60.15 -33.95,-203.73 -48.97,-267.68 -9.8,-41.66 -79.13,-361.82 -91.86,-386.15 -17.47,-33.41 -86.93,-20.5 -134.83,-28.86 -403.94,-70.51 -464.15,-611.45 -113.16,-781.56 68.48,-33.19 49.81,-38.4 20.92,-167.68 -19.55,-87.49 -40.95,-173.38 -61.34,-261.55 -13.15,-56.87 -43.19,-213.21 -66.42,-252.26 -36.44,-61.24 -112.91,-119.04 -219.52,-93.25 -84.77,20.51 -172.19,40.24 -258.12,60.15 -86.87,20.11 -176.47,44.64 -263.26,61.3 -6.97,-99.92 -55.57,-214.71 -123.21,-280.29 -32.84,-31.85 -68.01,-69.07 -106.78,-97.23 -45.2,-32.84 -79.88,-52.14 -138.67,-65.77 -305.87,-70.93 -596.75,132.57 -632.15,431.51 -11.88,100.31 5.76,151.35 29.02,237.48z"/>
  <path class="fil2" d="M9876.85 13645.36c-17.24,8.29 -460.42,4.17 -516.79,2.44 -13.87,-23.36 -31.95,-78.54 -42.37,-105.77 -13.95,-36.46 -27.18,-70.62 -41.27,-107.1l-912.47 -2365.57c-54.96,-143.58 -109.56,-287.63 -166.29,-430.81 -75.22,-189.79 -95.84,-265.65 -121.22,-475.27 -22.26,-183.89 -26.43,-378.24 -8.41,-562.81 17.84,-182.82 50.29,-330.83 97.94,-498.6 57.43,-202.26 175.28,-436.24 290.46,-603.4l96.85 -125.57c8,-8.7 9.63,-12.98 16.52,-20.64l55.7 -59.19c12.79,-14.48 22.26,-24.75 35.77,-38.41 279.83,-282.98 665.31,-479.91 1045.31,-597.5 101.86,-31.52 390.88,-107.44 488.82,-106.61l-109.9 59.1c-38.71,21.1 -72.69,42.37 -108.61,65.71 -72.31,46.99 -139.73,92.08 -202.95,141.89 -33.98,26.76 -64.13,50.3 -94.83,75.79l-92.97 81.27c-15.87,17.73 -27.98,25.9 -44.51,40.83l-85.37 85.11c-14.85,16.54 -25.42,31.66 -42.33,46.76l-59.35 66.65c-75.16,82.84 -176.43,232.02 -235.75,327.94 -85.94,138.95 -155.59,304.12 -214.46,478.94 -125.36,372.26 -125.26,829.06 -44.47,1222.83 52.48,255.78 189.32,660.52 279.42,929.47l38.25 114.37c4.56,18.3 4.14,7.69 -0.61,15.63 13.42,7.42 30.83,11.43 44.63,17.59 28.22,12.59 101.12,57.79 126.36,73.9 47.68,30.43 111.81,79.47 149.92,117.07 22.5,22.19 40.16,44.54 62.15,71.37 85.55,104.34 117.96,223.31 140.79,259.26 246.29,21.18 524.12,18.8 772.49,-2.47 45.26,-3.88 203.9,-18.2 235.31,-31.93 12.57,-25.02 20.19,-63.86 29.86,-92.63 9.99,-29.74 23.53,-61.49 37.23,-88.82 14.39,-28.7 30,-53.29 46.31,-76.03 122.73,-171.17 353.78,-143.69 427.68,-51.44 39.26,48.99 63.39,112.01 41.08,193.92 -20.09,73.75 -79.88,146.01 -130.69,180.77 -42.64,29.16 -74.6,45.23 -124.38,64.71 -65.19,25.5 -181.23,52.24 -193.91,57.91 -48.33,134.25 -98.78,708.95 -107.1,846.1 -9.19,151.46 -19.11,303.92 -24.29,455.55 -5.34,156.15 -6.39,311.76 -9.6,468.15l556.55 0.82c7.77,-34.68 325.8,-883.18 338.99,-919.31 112.48,-307.86 228.8,-612.47 340.95,-919.93 111.97,-306.99 225.87,-613.46 340.72,-920.03 129.96,-346.86 244,-595.24 288.78,-974.54 -70.02,21.62 -109.88,33.94 -190.09,34.36 -75.45,0.38 -153.14,1.44 -228.4,-0.3 17.58,184.35 -29.72,272.26 -124.82,404.1 -83.05,115.13 -230.26,168.47 -373.63,168.46 -77.77,-0.01 -156.02,-17.86 -218.02,-49.66 -33.9,-17.4 -53.84,-30.42 -83.12,-50.35 -28.92,-19.7 -49.55,-43.98 -71.46,-65.82 -88.52,-88.24 -142.38,-237.81 -126.04,-406.71 -124.38,2.82 -251.79,0.26 -376.51,0.26 -62.81,0 -126.54,1.07 -189.24,0 -66.03,-1.13 -99.63,-25.2 -129.8,-58.75 -34.79,-38.69 -38.94,-83.86 -38.92,-144.68 0.02,-77.33 3.57,-530.24 -1.22,-566.35 -94.76,26.75 -127.02,48.14 -247.62,37.35 -77.48,-6.94 -162.16,-36.03 -221.47,-70.42 -92.6,-53.69 -98.45,-57.4 -150.68,-142.27 -124.94,-203.03 -103.98,-479.84 67.77,-647.84 46.64,-45.62 116.43,-89.51 180.1,-112.89 36.35,-13.34 75.47,-22.71 116.3,-27.37 58.02,-6.62 92.29,3.22 143.11,2.34 11.88,-61.18 38.11,-138.62 83.59,-180.84 36.11,-33.52 30.13,-7.9 30.12,-86.52l0 -233.62c0,-46.62 -4.89,-96.02 13.97,-136.34 67.84,-145.1 221.03,-85.52 360.35,-99.39 -1.25,-13.82 -6.97,-33.51 -10.36,-48.36 -3.55,-15.51 -6.03,-39.12 -15.04,-48.6 -22.32,-16.95 -232.98,-43 -276.95,-47.56 -474.87,-49.23 -946.06,53.72 -1368.68,257.13 -70.25,33.81 -151.4,76.88 -211.64,118.37l-234.37 177.18c-44.09,40.93 -80.49,68.69 -125.72,119.09 -167.2,186.33 -286.58,343.96 -394.36,595.75 -143.2,334.54 -239.08,683.14 -231.74,1089.25 5.09,281.18 60.91,567.15 164.84,822.42 31.75,77.98 59.01,160.46 89.69,240.34 243.22,633.3 470.04,1295.41 713.7,1926.59 3.03,7.86 349.71,936.26 356.17,964.79l648.21 0.69c-3.5,-29.92 -6.8,-99.31 -17.96,-121.3z"/>
  <path class="fil3" d="M13189.65 7408.85c-9.19,-60.72 -30.15,-129.09 -43.78,-190.64 -14.12,-63.8 -29.16,-126.01 -44.23,-189.35 -9.16,-38.52 -33.52,-161.73 -48.04,-185.65 -43.37,-71.4 -111.92,-50.42 -164.85,-38.32 -125.86,28.78 -253.23,57.8 -378.51,88.33 -30.97,7.55 -62.04,14.98 -93.28,21.88 -27.99,6.18 -69.13,24.55 -93.79,5.96 -36.01,-27.15 -1.62,-78.03 -45.71,-191.75 -21.57,-55.63 -62.11,-109.35 -93.21,-140.41 -27.49,-27.46 -97.64,-86.11 -132.2,-101.4 -117.33,-51.9 -288.81,-22.4 -381.76,36.96 -158.3,101.1 -238.45,290.44 -174.38,485.84 8.57,26.14 34.35,64.98 28.22,90.23 -7.73,31.84 -45.5,34.11 -77.77,41.59 -58.95,13.66 -530.08,117.94 -563.62,137.43 -21.19,12.31 -41.31,35.4 -48.41,66.58 -7.63,33.51 4.09,67.2 11.71,99.19l132.89 567.77c26.15,109.89 -100.21,50.23 -142.28,45.63 -145.22,-15.88 -272.24,49.08 -345.52,119.66 -48.24,46.46 -66.68,52.42 -93.35,140.25 -111.09,365.75 211.16,656.26 533.65,544.81 112.49,-38.87 147.46,-105.5 178.45,-110.25 52.92,-8.12 54.57,52.37 67.24,107.5 29.06,126.46 58.38,252.37 88.73,378.7 14.21,59.17 26.5,131.72 44.68,188.71 8.94,28.04 30.88,50.22 53.67,61.24 36.64,17.72 59.89,11.39 98.94,1.97 48.07,-11.6 548.04,-135.62 574.95,-127.42 34.42,10.49 27.75,48.35 30.93,84.68 7.6,86.97 33.46,143.75 82.2,210.48 35.45,48.54 104.41,107.61 155.72,137.24 94.87,54.77 274.57,39.32 379.38,-19.69 161.37,-90.87 249.97,-281.82 197.13,-475.05 -9.15,-33.5 -22.95,-54.36 -32.98,-82.17 -15.33,-42.54 16.33,-56.75 49.13,-64.3 126.34,-29.1 252.7,-58.62 378.53,-88.27 58.16,-13.71 134.68,-27 188.93,-44.83 74.22,-24.39 80.07,-87.07 65.6,-150.92 -28.86,-127.31 -58.15,-255.07 -89.51,-381.77 -7.58,-30.65 -14.18,-61.86 -21.65,-93.1 -5.44,-22.71 -1.48,-34.87 -21.02,-37.4 -17.78,-2.3 -36.59,-2.3 -55.3,-5.1 -359.46,-54.02 -545.84,-467.24 -342.62,-775.08 30.06,-45.53 72.11,-88.9 115.09,-122.26 25.63,-19.89 63.27,-40.15 72,-47.5z"/>
  <path class="fil3" d="M9876.85 13645.36c4.4,-24.38 -73.12,-595.13 -86.33,-640.71 -7.19,-8.76 -20.8,-49.6 -25.61,-61.87 -43.08,-109.75 -330.05,-880.89 -338.76,-929.18 -16.7,-7.14 -47.29,-12.08 -67.22,-18.38 -23.18,-7.32 -46.81,-14.75 -67.99,-24.74 -71.75,-33.85 -165.47,-95.77 -214.24,-152.84 -32.27,-37.76 -51.31,-57.29 -79.6,-105.85 -67.16,-115.34 -119.39,-304.27 24.59,-393.38 53.21,-32.93 93.04,-23.04 155.27,-15.57 4.75,-7.94 5.17,2.67 0.61,-15.63l-38.25 -114.37c-90.1,-268.95 -226.94,-673.69 -279.42,-929.47 -80.79,-393.77 -80.89,-850.57 44.47,-1222.83 58.87,-174.82 128.52,-339.99 214.46,-478.94 59.32,-95.92 160.59,-245.1 235.75,-327.94l59.35 -66.65c16.91,-15.1 27.48,-30.22 42.33,-46.76l85.37 -85.11c16.53,-14.93 28.64,-23.1 44.51,-40.83l92.97 -81.27c30.7,-25.49 60.85,-49.03 94.83,-75.79 63.22,-49.81 130.64,-94.9 202.95,-141.89 35.92,-23.34 69.9,-44.61 108.61,-65.71l109.9 -59.1c-97.94,-0.83 -386.96,75.09 -488.82,106.61 -380,117.59 -765.48,314.52 -1045.31,597.5 -13.51,13.66 -22.98,23.93 -35.77,38.41l-55.7 59.19c-6.89,7.66 -8.52,11.94 -16.52,20.64l-96.85 125.57c-115.18,167.16 -233.03,401.14 -290.46,603.4 -47.65,167.77 -80.1,315.78 -97.94,498.6 -18.02,184.57 -13.85,378.92 8.41,562.81 25.38,209.62 46,285.48 121.22,475.27 56.73,143.18 111.33,287.23 166.29,430.81l912.47 2365.57c14.09,36.48 27.32,70.64 41.27,107.1 10.42,27.23 28.5,82.41 42.37,105.77 56.37,1.73 499.55,5.85 516.79,-2.44z"/>
  <path class="fil4" d="M9909.02 13315.86c9.56,9.82 14.54,28.15 19.91,41.38 5.81,14.31 11.18,27.87 17.24,42.15 12.25,28.82 23.72,56.12 35.06,83.66 10.48,25.51 69.27,150.73 69.28,164.96 -31.01,0.33 -106.04,5.09 -128.47,-2.31l3.22 120.74 735.55 0.21c-40.43,-427.63 -59.48,-888.33 -36.97,-1318.24 7.61,-145.37 24.67,-278.79 41.81,-421.66 -307.47,37.25 -589.01,55.05 -900.41,32.07 8.82,47.6 21.75,95.28 31.36,143.93 55.16,279.2 109.74,833.99 112.42,1113.11z"/>
  <path class="fil3" d="M10248.12 15406.79c280.01,0.33 501.74,-106.86 673.4,-256.6 8.98,-7.84 16.25,-17.82 25.4,-26.42 48.46,-45.56 81.1,-84.08 120.39,-139.24 39.54,-55.5 120.53,-192.47 137.05,-275.12l-1904.81 -0.16c17.99,87.08 94.72,213.01 135.08,273.34 18.53,27.7 65.94,87.09 92.74,111.15 9.63,8.64 15.78,16.89 25.77,26.22 9.45,8.84 15.84,18.33 25.11,26.7 176.33,159.31 419.92,259.85 669.87,260.13z"/>
  <path class="fil2" d="M11641.67 7174.37c-126.73,35.06 -258.01,66.21 -385.05,97.54 -64.21,15.84 -128,30.92 -192.27,48.4 -77.79,21.15 -133.8,17.13 -123.2,118.36 11.76,112.24 135.99,669.26 161.97,800.65l-154.15 -36.68c-110.52,-18.44 -231.86,-13.31 -329.4,41.11 -33.87,18.9 -84.93,59.65 -101.19,92.8 188.21,-34.33 445.32,-35.59 608.16,73.95 37.22,25.03 79.56,67.14 101.11,106.4l8.74 14.36c6.84,8.29 -1.14,0.42 6.98,7 7.43,-30.03 64.04,-136.59 81.65,-171.09 28.42,-55.7 56.03,-113.53 84.92,-171.06 57.78,-115.08 113.61,-227.57 169.11,-342.62 54.27,-112.52 112.67,-226.15 167.58,-340.44l168.33 -341.53 -58.7 -50.59c-58.87,-58.78 -103.76,-114.5 -121.1,-212.8 -17.93,-101.64 4.35,-186.22 43.8,-275.02 10.58,-23.8 31.46,-53.09 37.93,-72.39 -47.13,16.08 -141.01,86.36 -172.94,126.59 -9.3,11.72 -19.08,20.35 -28.81,34.16 -60.31,85.64 -81.96,182.18 -52.35,288.29 8.18,29.31 21.97,64.05 34.39,88.38 13.59,26.63 34.3,53.43 44.49,76.23z"/>
  <path class="fil3" d="M9151.29 14282.67c-46.66,7.29 -81.77,39.39 -95.5,77.29 -10.05,27.74 -10.65,127.18 -5.92,159.12 6.46,43.61 39.28,80.78 75.49,94.19 34.9,12.92 124.04,7.61 166.02,7.61 109.28,0 2023.13,4.81 2063.56,-1.48 44.57,-6.94 80.01,-40.32 93.48,-77.16 9.64,-26.38 9.77,-128.78 5.77,-159.35 -5.68,-43.23 -41.7,-81.58 -76.27,-93.84 -38.07,-13.49 -121.16,-7.83 -165.64,-7.83 -108.9,0 -2021.57,-4.71 -2060.99,1.45z"/>
  <path class="fil3" d="M9146.95 13855.94c-44.84,8.57 -79.86,41.55 -92.63,80 -7.99,24.07 -8.94,132.02 -4.23,158.92 7.72,44.14 41.91,78.88 78.84,91.91 33.05,11.65 129.16,6.58 169.87,6.58 629.17,0 1258.35,0 1887.52,0 104.77,0 227.73,26.8 263.69,-83.4 7.44,-22.79 7.95,-135.06 3,-159.8 -8.99,-44.92 -40.37,-76.42 -80,-90.44 -28.36,-10.03 -130.97,-5.66 -168.15,-5.66 -629.17,0 -1258.35,0 -1887.52,0 -41.45,0 -135.21,-4.83 -170.39,1.89z"/>
  <path class="fil1" d="M7047.19 9001.16c-110.88,1.7 -613.32,19.73 -723.99,33.58 -138.07,17.29 -225.31,166.74 -164.6,301.69 23.16,51.51 75.26,98.03 136.91,115.13 66.83,18.53 150.23,-6.27 217.33,-19.01 273.28,-51.92 786.48,-155 1028.8,-235.45 55,-18.26 144.78,-46.44 158.35,-94.57 22.12,-78.45 -93.72,-89.54 -155.15,-95.56 -161.49,-15.84 -335.16,-8.31 -497.65,-5.81z"/>
  <path class="fil1" d="M14608.32 9123.51c-31.85,3.94 -72.49,15.75 -104.44,23.25 -222.87,52.27 -1091.28,253.53 -1187.16,351.7 -23.17,23.73 -40.79,57.16 -7.15,88.78 42.68,40.12 157.53,37.31 224.1,37.32 318.72,0.05 650.79,-32.44 967.35,-61.97 64.25,-5.99 169.54,-10.15 222.51,-33.07 51.67,-22.36 100.31,-76.68 117.08,-139.12 39.91,-148.65 -85.71,-285 -232.29,-266.89z"/>
  <path class="fil1" d="M8419.36 5956.79c-76.69,10.06 -133.72,61.5 -160.71,115.27 -44.38,88.44 -18.58,146.33 14.34,222.84 55.29,128.56 118.47,254.53 176.6,379.68 80.74,173.82 283.19,591.47 390.92,721.52 69.27,83.61 136.73,49.61 133.25,-50.3 -5.4,-155.35 -112.48,-530.66 -154.49,-681.23 -39.87,-142.86 -82.25,-288.38 -126.22,-429.79 -22.18,-71.34 -38.73,-149.35 -77.75,-200.48 -34.1,-44.69 -106.01,-89.3 -195.94,-77.51z"/>
  <path class="fil1" d="M10263.3 5523.52c-68.84,14.13 -119.1,57.19 -145.53,104.86 -38.09,68.68 -24.81,135.4 -20.17,217.82 14.64,260.14 47.73,658.47 83.58,913.48 9.98,71.06 20.98,143.67 37.28,211.43 8.11,33.75 19.29,65.75 34.33,91.86 13.37,23.22 50.99,43.85 84.1,19.33 40.06,-29.66 56.44,-122.68 67.18,-181.08 57.26,-311.34 89.64,-811.81 111.2,-1134.95 5.42,-81.19 -8.7,-130.87 -63.22,-185.62 -20.64,-20.73 -42.19,-36.92 -76.95,-49.19 -33.53,-11.83 -74.83,-15.52 -111.8,-7.94z"/>
  <path class="fil1" d="M12669.23 11104.09c-79.2,16.72 -37.08,156.24 -20.3,215.26 21.4,75.25 44.64,144.99 69,216.8 85,250.65 215.64,578.18 318.34,823.73 28.63,68.47 45.07,122.85 124.28,161.4 153.77,74.84 326.77,-49.94 305.35,-220.11 -7.07,-56.2 -63.34,-142.88 -92.67,-192.88 -71.45,-121.85 -139.51,-240.7 -211.55,-359.51 -72.86,-120.17 -145.28,-238.31 -219.5,-351.64 -40.13,-61.28 -102.79,-153.84 -148.38,-207.54 -5.83,-6.87 -8.74,-12.33 -14.56,-18.94 -23.06,-26.17 -68.15,-75.4 -110.01,-66.57z"/>
  <path class="fil1" d="M12904.46 10282.03c-39.45,11.57 -58.1,49.5 -32.31,91.12 17.28,27.88 45.94,50.33 70.37,70.66 58.72,48.88 259.86,180.64 340.32,227.04l357.55 209.85c48.24,28.03 316.01,181.05 366.29,204.75 72.66,34.23 167.15,17.32 220.06,-24.32 129.61,-102.01 98.68,-299.93 -40.8,-362.71 -90.71,-40.82 -305.92,-120.51 -408.56,-158.8 -130.29,-48.61 -757.69,-291.4 -872.92,-257.59z"/>
  <path class="fil1" d="M6969.8 7147.35c-192.39,23.52 -232.89,248.51 -133.43,354.4 26.13,27.81 47.83,39.64 82.71,61.84 206.15,131.16 430.68,275.28 639.34,395.32 72.52,41.72 413.99,255.42 503.98,227.24 39.28,-12.29 46.88,-57.76 25.7,-96.77 -12.26,-22.58 -45.54,-68.18 -62.98,-85.48 -15.45,-15.32 -21.54,-26.12 -34.86,-39.34l-147.46 -145.43c-14.15,-12.48 -25.88,-21.16 -38.37,-35.82 -12.58,-14.76 -24.83,-22.47 -39.23,-35.02l-231.5 -209.65c-7.66,-7.4 -13.14,-9.69 -20.63,-16.62l-337.32 -289.37c-50.45,-42.42 -102.26,-97.98 -205.95,-85.3z"/>
  <path class="fil3" d="M13436.8 9533.34c165.02,16.89 600.42,-17.92 782.78,-33.61 58.85,-5.06 427.45,-32.24 465.53,-49.41 112.66,-50.82 90.63,-210.61 -22.23,-237.37 -47.64,-11.29 -208.57,35.66 -260.16,47.64 -111.73,25.96 -220.64,52.96 -330.38,80.99 -103.36,26.39 -585.09,151.75 -635.54,191.76z"/>
  <path class="fil3" d="M10303.75 6944.76c32.57,-57.31 79.95,-597.94 89.21,-704.02 10.66,-122.15 20.87,-247.2 27.83,-369.57 2.74,-48.27 16.49,-140.97 0.64,-182.09 -42.6,-110.5 -191.42,-107.57 -234.26,-2.49 -15.88,38.94 -3.55,132.95 -0.52,179.77 15.48,238.81 36.13,494.33 62.69,731.81 7.29,65.21 33.46,301.98 54.41,346.59z"/>
  <path class="fil3" d="M8881.25 7300.12c-20.66,-209.56 -213.13,-847.73 -283.98,-1077.46 -20.7,-67.1 -26.84,-116.92 -71.61,-154.4 -50.56,-42.32 -127.22,-27.98 -166.12,11.98 -49.26,50.61 -41.56,100.15 -12.02,166.16 23.52,52.58 46.46,103.52 70.65,155.57 87.73,188.78 199.81,429.04 295.53,609.32 27.1,51.05 53.15,98.8 78.94,147.24 8.34,15.65 71.03,127.75 88.61,141.59z"/>
  <path class="fil3" d="M12999.44 10374.63c16.64,19.55 41.86,35.17 64.93,51.09 21.2,14.63 45.5,31.72 68.29,46.67 221.29,145.16 658.13,401.43 881.21,516.83 30.29,15.67 45.11,29.72 87.22,27.9 34.45,-1.49 67.03,-18.9 83.91,-34.81 40.45,-38.12 74.36,-161.34 -60.91,-214.55l-422.9 -163.01c-111.14,-41.71 -227.02,-85.68 -340.81,-122.69 -82.49,-26.82 -284.99,-98.5 -360.94,-107.43z"/>
  <path class="fil3" d="M7556.63 9096.32c-216.62,-27.59 -919.53,4.88 -1165.22,21.71 -71.01,4.86 -111.52,10.6 -143,57.53 -43.94,65.5 -20,166.43 71.95,192.08 44.8,12.49 207.63,-27.21 257.49,-36.97 169.89,-33.24 910.69,-183.56 978.78,-234.35z"/>
  <path class="fil3" d="M12720.48 11241.25c34.8,191.75 324.99,916.59 407.89,1111.87 16.73,39.41 19.73,48.57 45.62,73.04 83.24,78.65 276.22,-10.68 178.14,-178.15 -87.98,-150.24 -167.11,-291.32 -258.51,-442.35 -98.22,-162.3 -208.44,-342.54 -318.62,-497.24 -6.87,-9.65 -43.53,-59.75 -54.52,-67.17z"/>
  <path class="fil3" d="M7972.84 8078.79c-9.5,-7.64 -15.05,-20.62 -25.67,-30.35 -13.65,-12.51 -17.62,-18.09 -28.71,-30.57 -30.58,-34.42 -146.05,-147.08 -186.26,-180.91l-94.93 -86.81c-53.54,-50.04 -132.57,-115.4 -177.47,-159.84 -6.77,-6.71 -9.49,-7.48 -16.62,-13.17l-327.08 -280.97c-11,-9.21 -23.71,-19.03 -34.69,-28.44 -128.3,-110.1 -280.93,63.89 -179.05,175.34 39.49,43.21 701.93,441.93 750.77,469.29 44.92,25.16 281.1,162.55 319.71,166.43z"/>
  <path class="fil2" d="M10575.96 14999.74c0.29,125.43 -83.73,209.91 -176.47,273.7 -11.79,8.11 -84.01,53.24 -93.12,53.64 47.36,5.98 210.84,-48.06 255.06,-65.91 100.4,-40.55 179.97,-89.13 258.86,-149.08 16.43,-12.49 28.79,-25.9 43.93,-37.65 68,-52.74 188.29,-208.68 213.12,-280.36l-580.92 0.3c14.63,31.74 79.28,92 79.54,205.36z"/>
  <path class="fil1" d="M11078.78 13557.82c20.75,-21.88 109.75,-223.17 128.67,-268.74 38.82,-93.46 78.44,-185.05 116.57,-280.2 76.13,-189.98 141.52,-392.14 207.61,-589.63 128.07,-382.73 263.92,-764.89 389.43,-1149.57 2.04,-6.24 4.64,-13.28 6.49,-19.66 1.63,-5.56 3.43,-12.23 0.43,-18.29 -4.64,3.87 -1.56,0.16 -5.48,6.03l-223.67 558.81c-75.82,190.49 -150.14,381.94 -223.92,573.34 -73.68,191.14 -152.37,375.42 -220.03,573.45 -48.56,142.14 -101.68,309.3 -141.55,455.53l-37.81 147.66c0.94,24.01 -6.45,-20.41 2.03,8.54 0.19,0.65 0.66,1.91 1.23,2.73z"/>
  <path class="fil2" d="M10670.87 14102.09l589.62 0c100.83,0 114.02,-110.72 50.09,-146.33 -34.8,-19.38 -212.26,-10.56 -265.18,-10.56 -179.52,0 -370.76,-6.34 -548.82,0.45 11.49,17.7 111.66,113.29 141.9,144.59 10.9,11.29 10.85,11.85 32.39,11.85z"/>
  <path class="fil2" d="M10496.15 14373.02c3.46,6.87 138.21,152.53 159.9,155.99l567.35 0.22c40.51,0 80.67,1.1 103.99,-22.54 33.51,-33.95 39.25,-133.98 -74.29,-133.78l-756.95 0.11z"/>
  <path class="fil5" d="M10503.88 8055.56c13.28,-5.51 23.87,-13.63 36.81,-20.48 110.89,-58.7 209.83,-78.82 338.81,-58.84l-66.98 -288.23c-56.35,0.77 -112.08,0.29 -167.61,0.29 -60.25,0 -103.91,-5.21 -130.42,38.87 -20.4,33.92 -9.37,269.99 -10.61,328.39z"/>
  <path class="fil3" d="M9790.52 13004.65c-7.05,-80.19 -25.79,-172.77 -38.55,-253.05 -17.53,-110.38 -115.79,-639.09 -159.56,-708.65l-166.26 -29.35c8.71,48.29 295.68,819.43 338.76,929.18 4.81,12.27 18.42,53.11 25.61,61.87z"/>
  <path class="fil1" d="M9515.3 9021.96c-0.01,92.69 14.66,177.85 48.94,257.44 43.97,102.11 117.84,180.22 206.41,231.17 29.97,17.24 63.21,32.47 98.66,45.96 116.97,44.51 172.98,33.64 241.48,50.64l3.02 11.92c0.53,4.14 0.59,10.25 0.73,14.57 2.49,75.86 19.83,378.81 44.58,403.21 26.97,-28.36 45.76,-405.7 45.58,-466.08 -0.37,-119.7 -172.09,17.64 -440,-135.84 -145.75,-83.48 -232.68,-271.78 -233.11,-476.03 -0.03,-13.01 3.48,-26.03 -2.88,-35.48 -15.4,15.2 -13.41,72.46 -13.41,98.52z"/>
  <path class="fil1" d="M12648.84 9605.63c34.11,-8.51 63.13,-51.8 79.44,-83.77 19.48,-38.22 30.42,-77.2 34.29,-125.24 9.47,-117.66 -20.7,-177.02 -54.09,-272.15 46.24,-8.59 110.42,-32.5 157.94,-46.6 53.01,-15.72 106.3,-32.95 159.36,-48.31 51.75,-14.98 107.69,-33.04 157.94,-49.68l145.99 -46.92c9.03,-5.09 3.05,1.03 8.42,-7.41 -24.83,-9.73 -557.88,109.39 -629.18,124.76 -137.84,29.73 -99.92,7.57 -42.84,231.36 20.61,80.82 33.12,169.37 10.65,251.88 -7.8,28.66 -21.8,49.18 -27.92,72.08z"/>
  <path class="fil1" d="M9196.77 14450.91c25.3,22.21 218.85,39.83 266.89,42.49 138.85,7.69 662.65,-22.31 855.08,-35.64 13.4,-0.93 24.75,0.27 32.82,-6.85 -18.48,-13.83 -521.16,-33.29 -587.11,-35.22 -105.89,-3.11 -192.98,-13.37 -301.48,-6.68 -48.72,3 -239.51,19.49 -266.2,41.9z"/>
  <path class="fil1" d="M9196.38 14024.34c22.39,20.21 218.64,39.79 243.21,41.66 104.65,7.96 795.85,-28.18 815.03,-41.55 -10.71,-11.22 -110.48,-13.1 -126.71,-13.99 -45.14,-2.47 -90.37,-5.27 -135.65,-8.49 -91.12,-6.47 -183.28,-8.35 -274.4,-13.51 -97.02,-5.5 -178.64,-13.29 -277.14,-6.95 -43.48,2.79 -223.92,20.29 -244.34,42.83z"/>
  <path class="fil1" d="M10083.64 15288.31c-5.16,-11.91 -74.79,-41.76 -87.15,-48.05 -30.15,-15.33 -62.23,-35.79 -86.79,-54.14 -28.38,-21.22 -52.75,-41.08 -79.56,-61.34 -8.48,-6.41 -10.08,-8.85 -17.87,-15.46l-229.83 -226.39c-18.06,-18.8 -101.88,-89.32 -118.69,-89.37 -4.9,47 73.22,154.83 93.05,181.76 39.53,53.73 89.93,89.67 147.88,133.96 50.85,38.86 104.3,72.38 169.93,108.19 30.54,16.66 173.81,77.96 209.03,70.84z"/>
  <path class="fil1" d="M12165.31 7021.51c29.06,-7.17 58.06,-88.4 63.66,-123.54 15.43,-96.74 -52.7,-197.75 -126.89,-245.43 -27.21,-17.49 -107.67,-50.85 -146.52,-39.54 4.79,11.44 37.22,19.98 48.81,26.02 18.11,9.44 33.1,19.34 47.44,30.47 20.73,16.09 55.73,55.75 69.6,86.11 25.41,55.64 18.99,235.19 43.9,265.91z"/>
  <path class="fil1" d="M12440.46 7022.63c34.8,7.99 207.42,-16.44 255,-20.57 46.38,-4.02 74.93,-5.13 114.5,-23.96 27.28,-12.98 73.85,-41.16 81.38,-58.74 -17.56,-21.68 -98.69,-20.29 -128.39,-17.12 -39.69,4.24 -75.53,23.82 -111.82,35.58 -27.33,8.86 -203.85,67.55 -210.67,84.81z"/>
  <path class="fil4" d="M9922.04 13645.7c22.43,7.4 97.46,2.64 128.47,2.31 -0.01,-14.23 -58.8,-139.45 -69.28,-164.96 -11.34,-27.54 -22.81,-54.84 -35.06,-83.66 -6.06,-14.28 -11.43,-27.84 -17.24,-42.15 -5.37,-13.23 -10.35,-31.56 -19.91,-41.38l13.02 329.84z"/>
  <path class="fil3" d="M9333.71 11757.63c3.49,-9.48 -22.42,-72.38 -28.53,-90.55 -11.24,-33.41 -22.85,-64 -33.38,-97.33 -15.59,-16.72 -115.2,-71.16 -145.69,-79.88 5.69,61.96 46.9,128.79 76.2,161.4 22.22,24.74 93.85,96.8 131.4,106.36z"/>
  <path class="fil3" d="M9333.71 11757.63c18.12,21.03 128.12,57.34 163.4,55.83 -30.23,-60.19 -100.46,-152.95 -154.63,-194.87 -17.81,-13.78 -48.51,-40.15 -70.68,-48.84 10.53,33.33 22.14,63.92 33.38,97.33 6.11,18.17 32.02,81.07 28.53,90.55z"/>
  <path class="fil3" d="M10913.83 11761.14c23.17,-0.27 96.13,-32.7 116.14,-43.84 24.71,-13.74 27.9,-18.17 45.28,-36.36 13.19,-13.8 26.97,-30.91 27.92,-54.36 -21.33,-13.67 -49.35,-13.57 -75.75,-8.24 -27.13,5.48 -38.41,20.24 -50.73,34.61 -24.63,28.72 -46.98,66.45 -62.86,108.19z"/>
 </g>
</svg>
