<?xml version="1.0" encoding="UTF-8"?>
<!DOCTYPE svg PUBLIC "-//W3C//DTD SVG 1.1//EN" "http://www.w3.org/Graphics/SVG/1.1/DTD/svg11.dtd">
<!-- Creator: CorelDRAW (Versão de avaliação) -->
<svg xmlns="http://www.w3.org/2000/svg" xml:space="preserve" width="210mm" height="210mm" version="1.1" style="shape-rendering:geometricPrecision; text-rendering:geometricPrecision; image-rendering:optimizeQuality; fill-rule:evenodd; clip-rule:evenodd"
viewBox="0 0 21000 21000"
 xmlns:xlink="http://www.w3.org/1999/xlink"
 xmlns:xodm="http://www.corel.com/coreldraw/odm/2003">
 <defs>
  <style type="text/css">
   <![CDATA[
    .fil0 {fill:none}
    .fil1 {fill:black;fill-rule:nonzero}
    .fil4 {fill:#62D8F9;fill-rule:nonzero}
    .fil3 {fill:#97E4F9;fill-rule:nonzero}
    .fil2 {fill:#C7EEFB;fill-rule:nonzero}
   ]]>
  </style>
 </defs>
 <g id="Camada_x0020_1">
  <metadata id="CorelCorpID_0Corel-Layer"/>
  <rect class="fil0" x="8.55" y="9.6" width="20968.64" height="20995.07"/>
  <g id="Lupa.svg">
   <g id="__x0023_000000ff">
    <g>
     <path class="fil1" d="M11706.98 6028.84l39.37 0c577.04,5.25 1152.52,161.67 1647.5,459.29 513.01,307.07 938.88,758.49 1214.11,1289.7 231.66,443.54 354.14,941.68 364.11,1441.56l0 92.21c-9.27,612.39 -192.29,1221.81 -529.8,1733.42 -319.15,485.89 -769.17,885.51 -1292.33,1139.74 -469.79,229.74 -996.26,341.89 -1519.07,325.27 -675.56,-18.72 -1342.19,-256.68 -1877.24,-669.61 -126.33,126.68 -253.36,252.66 -379.51,379.69 31.49,83.28 46.54,176.37 19.24,263.15 -22.39,84.68 -83.45,150.3 -139.97,214.16 -583.17,664.88 -1164.94,1331.34 -1748.46,1996.05 -157.3,181.44 -393.33,291.49 -633.74,291.84 -241.98,3.85 -482.21,-102.7 -641.96,-284.32 -127.38,-139.98 -199.64,-323.87 -215.56,-511.43l0 -100.44c12.25,-155.54 61.41,-309.17 151.7,-437.24 65.09,-96.24 155.55,-170.6 242.33,-246.36 625.51,-547.3 1250.68,-1095.13 1876.19,-1642.43 70.34,-61.06 138.93,-132.1 232.01,-156.77 86.61,-27.3 179.87,-12.95 262.98,19.42 127.9,-125.45 253.7,-253 380.55,-379.68 -304.44,-395.43 -516.15,-861.55 -611.16,-1351.64 -123.36,-625.86 -57.39,-1288.29 190.19,-1876.54 252.13,-605.21 694.97,-1127.67 1247.35,-1480.06 510.38,-328.59 1115.25,-501.46 1721.17,-508.98l0 0zm-259.83 276.98c-751.32,67.71 -1469.04,436.19 -1962.8,1006.59 -423.95,481.34 -683.08,1104.23 -726.65,1744.26 -42.34,582.82 90.99,1177.72 381.26,1685.3 300.95,528.58 766.72,962.5 1317.34,1221.63 511.08,243.04 1092.5,334.02 1653.63,261.41 724.9,-89.41 1408.68,-460.7 1881.61,-1016.92 481.52,-555.53 741.17,-1295.65 715.98,-2030.17 -15.4,-515.8 -167.27,-1027.23 -438.65,-1466.41 -291.67,-474.69 -718.59,-865.92 -1218.66,-1112.1 -493.23,-244.43 -1055.23,-345.56 -1603.06,-293.59l0 0zm-2467.93 5492.09c74.36,74.01 148.72,148.02 222.55,222.38 116.53,-115.65 231.66,-233.05 349.07,-347.83 -75.06,-73.49 -151,-146.28 -221.86,-223.96 -116.88,116.17 -233.24,232.88 -349.76,349.41l0 0zm-478.89 131.22c-94.66,79.61 -186.7,162.2 -279.43,244.09 -12.07,9.09 -24.32,18.37 -36.39,27.82 58.09,47.59 107.95,103.93 161.84,156.24 144,145.05 295,283.63 432.87,434.63 12.25,1.04 24.33,1.92 36.58,2.97 19.07,-40.42 59.31,-64.21 81.7,-102.36 18.55,-11.02 29.93,-29.39 42.17,-46.19 26.6,-31.67 56.69,-60.19 81.01,-93.61 17.5,-11.9 29.92,-29.04 41.29,-46.37 21.53,-27.12 53.54,-48.28 61.25,-84.15l14.87 2.8c0.17,-29.75 0.17,-59.32 0,-89.06l-14.87 1.75c-4.56,-28.17 -28.35,-44.79 -46.55,-63.87 -137,-131.4 -265.43,-271.72 -403.82,-401.72 -63.52,-38.85 -131.05,8.92 -172.52,57.03l0 0zm-540.83 455.8c0.17,11.19 0.35,33.42 0.35,44.62l-29.4 -15.23 2.98 22.75c-22.57,2.45 -36.92,14.17 -42.87,35.35 -31.49,16.26 -54.94,43.38 -83.29,64.03l5.25 17.15 -20.64 -13.47 -9.8 116.35 -15.4 -106.91c-3.32,11.73 -9.97,35 -13.3,46.72 -37.96,-0.7 -34.47,50.04 -76.11,46.02 12.6,13.82 37.8,41.46 50.39,55.29 -18.19,-9.28 -54.59,-27.47 -72.78,-36.74 -33.42,69.1 -142.95,86.78 -115.83,181.96 -5.6,-17.32 -16.8,-51.79 -22.4,-69.11l-4.37 29.92c-46.37,12.95 -62.11,67.19 -106.03,81.71 -1.58,19.42 -4.9,58.27 -6.48,77.68 -5.95,-16.62 -17.85,-49.68 -23.79,-66.31l-2.98 29.92c-22.04,3.15 -36.21,15.05 -42.17,35.69 -31.14,16.63 -55.29,42.87 -82.93,64.22l1.22 16.8 -23.44 -12.77 8.05 18.89c-53.9,11.72 -66.84,79.96 -122.66,86.08l64.57 19.43c-22.05,0.69 -66.32,2.09 -88.36,2.97l5.77 14.7c-47.42,9.8 -62.11,65.61 -106.03,80.48 -2.1,20.13 -5.95,60.37 -8.05,80.31 -5.59,-17.32 -16.62,-52.14 -22.22,-69.63l-4.2 29.57c-51.44,15.22 -65.61,79.96 -120.38,86.43l61.59 23.62c-21.52,-0.52 -64.56,-1.75 -86.08,-2.27l5.25 16.44c-47.24,11.03 -63.52,65.27 -107.08,82.24 -0.7,8.05 -2.28,24.32 -2.98,32.37 -8.4,-3.68 -24.84,-11.02 -33.07,-14.7l7.53 28.35 -25.02 -9.1 0.52 20.29c-33.42,13.3 -61.76,39.9 -76.81,72.62 -7.18,0.34 -21.7,0.87 -29.04,1.22l3.15 21 -22.23 -5.78 3.33 17.68c-21.87,1.75 -35.17,12.94 -40.07,33.77 -24.67,8.57 -45.14,26.76 -52.49,52.66 -22.05,4.37 -33.24,18.2 -33.42,41.82l-12.08 -5.6c-7.87,19.07 -15.56,38.49 -23.44,57.92l-20.65 -1.23c2.63,7.7 7.88,23.09 10.5,30.8 -10.32,3.84 -30.97,11.19 -41.29,14.86l94.49 13.83c-74.89,-17.5 -106.04,4.9 -93.61,67.01l-17.15 -9.97c0.17,14.87 0.53,44.79 0.7,59.66l-14.18 -0.52c-3.32,54.41 -6.99,108.83 -4.54,163.42 5.24,42.51 -11.38,110.75 82.76,70.51l-71.39 9.8c2.62,12.77 7.87,38.49 10.5,51.44l19.42 -1.75c-3.5,9.62 -10.5,29.04 -14,38.84l24.5 -7.17c-10.33,66.84 26.24,88.71 109.88,65.61l-108.48 14.35c11.55,3.15 34.29,9.45 45.66,12.6l-21.17 13.12 152.75 12.77 -136.82 10.33c26.42,18.72 43.74,45.84 60.71,72.96l15.22 -94.66 8.58 124.93 18.89 -100.96 -3.67 104.98c8.57,-1.92 25.54,-6.12 34.11,-8.04 3.15,14.17 9.28,42.68 12.43,57.03l14.87 -146.1c-46.89,60.54 4.38,130.71 40.95,175.15l35.51 -69.46 1.93 81.71c24.32,4.55 48.82,10.49 73.83,8.92l-3.85 17.84c25.73,0.36 51.27,0.53 76.99,0.7l-8.4 15.05c69.29,3.5 138.75,4.03 207.87,0.18l12.42 -167.8 11.72 160.62c12.42,-2.79 37.62,-8.39 50.22,-11.2l-7.53 -14.52c15.4,0 46.02,0 61.24,0l-85.03 -58.79 121.6 53.02 -101.48 -117.58 101.66 89.59 40.06 13.29 -59.14 -36.56c21.18,3.84 63.34,11.37 84.52,15.04l-104.29 -62.11 111.28 43.56 -12.42 -24.67c25.02,-2.97 50.22,-7.87 70.69,-23.44l19.07 -0.88 -7.52 -18.72c5.25,-4.02 15.92,-11.89 21.34,-15.92 -2.97,-5.78 -8.92,-17.5 -11.89,-23.27l47.58 -9.8 -74.88 -85.56 99.73 79.96c-25.02,-28.52 -74.71,-85.73 -99.73,-114.25l87.83 67.71 26.95 5.95c4.9,-9.27 14.87,-27.82 19.94,-37.09 8.23,-5.6 24.67,-16.63 33.08,-22.23 1.22,-5.77 3.84,-16.97 5.24,-22.56l-2.27 -13.65 -51.44 -91.86 98.68 89.58 -28.17 -44.62 19.42 2.45c7.52,-0.7 22.75,-1.74 30.27,-2.27 3.33,-5.6 9.8,-16.8 12.95,-22.4 9.09,-12.07 16.62,-25.02 22.74,-38.49l37.1 -0.87 -92.73 -19.95 100.08 -9.8 -79.09 -90.98 98.86 82.93c-4.9,-9.8 -14.88,-29.22 -19.77,-38.84 14.17,-3.15 42.69,-9.45 56.86,-12.6l-85.39 -16.8c30.98,-4.72 93.09,-14.17 124.06,-18.89l-146.8 -16.1c39.72,-3.15 119.33,-9.63 159.05,-12.77 22.74,-26.77 39.36,-58.62 67.36,-80.67 -203.49,-7.34 10.15,-12.59 56.51,-49.68l-145.22 -13.82 158 -12.6 -82.59 -92.74 108.31 88.54c-25.37,-29.4 -75.94,-87.84 -101.31,-117.06l89.94 74.19 31.14 -2.62c-15.05,-20.13 -45.49,-60.2 -60.54,-80.32l65.97 49.69c34.81,-30.96 93.08,-56.86 86.96,-113.38l25.01 12.78 -0.87 -22.57 -47.77 -59.32 59.32 41.82 22.57 -6.3c0.88,-8.4 2.8,-25.02 3.67,-33.24l33.77 0.87 -103.41 -70.33 119.86 55.46 -87.48 -97.98 108.47 88.53c-24.14,-28 -72.26,-83.63 -96.23,-111.63l84.34 68.07 27.99 -1.06c-0.52,-9.8 -1.57,-29.57 -2.1,-39.54l27.47 12.25 -12.07 -24.85c13.82,-2.79 41.82,-8.39 55.64,-11.2l-143.82 -15.92 161.49 -12.42 -103.76 -16.62c32.55,-1.58 97.64,-4.73 130.18,-6.13l-118.8 -18.54c30.97,-1.75 93.25,-5.6 124.23,-7.53 8.22,-16.79 16.27,-33.94 23.79,-50.91 12.25,-3.15 36.75,-9.28 48.99,-12.43l-139.97 -15.39c128.25,59.66 220.28,-67.89 220.28,-172l11.55 66.14c30.8,-41.64 84.68,-78.21 83.11,-134.72l25.9 13.65 -11.38 -25.73c14,-2.8 42,-8.57 55.99,-11.37l-138.4 -16.1 149.78 -11.37 -83.64 -94.48 107.43 89.58 -24.32 -39.02c10.67,-0.7 32.02,-2.1 42.69,-2.8 8.93,-15.74 18.38,-30.96 28.35,-45.84 -28.52,-4.55 -62.64,-7.87 -44.44,-45.66 -10.33,1.22 -30.8,3.67 -41.12,4.89 2.1,-9.62 6.47,-29.04 8.57,-38.66 -9.62,0.87 -29.04,2.79 -38.67,3.67 -0.7,-7 -2.27,-21.35 -3.15,-28.34 -39.54,-34.65 -76.81,-71.74 -111.27,-111.46 -7.01,-0.7 -21.35,-2.28 -28.35,-2.98 0.88,-9.62 2.63,-29.04 3.5,-38.83 -9.62,2.09 -28.69,6.47 -38.32,8.57 0.88,-10.68 2.45,-32.02 3.15,-42.7 -10.32,1.41 -31.32,4.2 -41.64,5.6 2.97,-8.92 8.92,-26.77 11.9,-35.69l-24.85 2.1 -0.35 -26.42c-9.27,2.1 -27.82,5.95 -37.09,8.05 2.27,-8.92 6.65,-26.77 8.92,-35.7 -8.22,-1.4 -24.49,-4.2 -32.72,-5.6 -38.49,-54.94 -87.83,-107.6 -144.7,-143.47 -1.22,-8.4 -3.67,-25.2 -4.9,-33.59 -7.52,2.27 -22.74,6.82 -30.27,9.27 2.28,-42.17 -36.04,-78.39 -77.33,-78.21z"/>
    </g>
    <path class="fil1" d="M9571.14 7978.34c383.35,-645.11 1067.83,-1106.5 1814.77,-1198.36 68.59,-4.2 125.8,54.94 134.2,120.38 -0.7,61.24 -38.67,124.23 -101.83,136.13 -101.66,20.12 -204.36,35.51 -303.57,65.78 -523.33,144.88 -985.08,490.97 -1278.5,946.76 -272.42,419.4 -395.6,931.7 -348.71,1429.32 52.49,603.12 362.19,1178.94 838.8,1552.5 309.35,253 690.95,412.75 1085.51,470.31 71.56,7 119.68,74.01 118.28,143.47 -11.2,67.02 -73.14,125.63 -143.83,116.53 -597.52,-76.98 -1159.51,-384.05 -1553.02,-839.32 -355.01,-404 -571.63,-925.76 -610.29,-1461.69 -39.89,-514.06 82.58,-1039.66 348.19,-1481.81z"/>
    <path class="fil1" d="M11877.4 6890.91c9.09,-66.31 68.76,-125.45 138.4,-118.8 573.54,59.48 1120.5,331.39 1519.43,746.94 347.83,357.11 584.74,820.42 669.78,1311.56 86.61,487.64 25.89,1000.65 -174.1,1453.82 -186.51,426.22 -495.68,797.16 -878.69,1060.83 -331.04,229.21 -718.94,374.09 -1118.58,421.5 -74.36,15.58 -146.09,-42.86 -156.24,-115.83 3.15,-37.26 10.15,-77.68 38.84,-104.45 34.82,-37.97 89.41,-39.54 136.83,-47.59 504.61,-68.07 980,-320.02 1325.03,-693.58 342.24,-364.81 554.83,-847.55 595.07,-1345.86 49.52,-569.87 -126.32,-1158.12 -489.39,-1601.14 -346.61,-437.42 -863.29,-737.14 -1416.36,-815.18 -53.9,-9.45 -118.28,-8.92 -156.08,-55.11 -24.85,-26.07 -30.27,-62.82 -33.94,-97.11z"/>
    <path class="fil1" d="M11463.95 7564.54c494.11,-78.38 1019.54,69.11 1395.02,400.85 48.82,48.29 119.68,89.24 128.6,163.77 9.63,75.07 -56.69,147.5 -132.27,144.18 -57.39,2.1 -96.59,-44.27 -135.08,-79.44 -268.05,-251.6 -635.49,-391.75 -1002.74,-387.03 -373.21,0.7 -742.92,152.93 -1008.52,415.2 -40.07,44.97 -107.78,67.71 -163.77,38.5 -76.64,-33.6 -99.91,-145.58 -40.07,-205.07 254.93,-262.1 597.87,-435.5 958.83,-490.96z"/>
   </g>
   <g id="__x0023_c7eefbff">
    <g>
     <path class="fil2" d="M11447.15 6305.82c547.83,-51.97 1109.83,49.16 1603.06,293.59 500.07,246.18 926.99,637.41 1218.66,1112.1 271.38,439.18 423.25,950.61 438.65,1466.41 25.19,734.52 -234.46,1474.64 -715.98,2030.17 -472.93,556.22 -1156.71,927.51 -1881.61,1016.92 -561.13,72.61 -1142.55,-18.37 -1653.63,-261.41 -550.62,-259.13 -1016.39,-693.05 -1317.34,-1221.63 -290.27,-507.58 -423.6,-1102.48 -381.26,-1685.3 43.57,-640.03 302.7,-1262.92 726.65,-1744.26 493.76,-570.4 1211.48,-938.88 1962.8,-1006.59l0 0zm-1876.01 1672.52c-265.61,442.15 -388.08,967.75 -348.19,1481.81 38.66,535.93 255.28,1057.69 610.29,1461.69 393.51,455.27 955.5,762.34 1553.02,839.32 70.69,9.1 132.63,-49.51 143.83,-116.53 115.12,15.05 231.65,13.13 347.31,6.3 10.15,72.97 81.88,131.41 156.24,115.83 399.64,-47.41 787.54,-192.29 1118.58,-421.5 383.01,-263.67 692.18,-634.61 878.69,-1060.83 199.99,-453.17 260.71,-966.18 174.1,-1453.82 -85.04,-491.14 -321.95,-954.45 -669.78,-1311.56 -398.93,-415.55 -945.89,-687.46 -1519.43,-746.94 -69.64,-6.65 -129.31,52.49 -138.4,118.8 -118.98,-4.03 -239.36,-11.2 -357.29,9.45 -8.4,-65.44 -65.61,-124.58 -134.2,-120.38 -746.94,91.86 -1431.42,553.25 -1814.77,1198.36z"/>
    </g>
    <path class="fil2" d="M8979.22 11797.91c116.52,-116.53 232.88,-233.24 349.76,-349.41 70.86,77.68 146.8,150.47 221.86,223.96 -117.41,114.78 -232.54,232.18 -349.07,347.83 -73.83,-74.36 -148.19,-148.37 -222.55,-222.38z"/>
    <path class="fil2" d="M8500.33 11929.13c41.47,-48.11 109,-95.88 172.52,-57.03 138.39,130 266.82,270.32 403.82,401.72 18.2,19.08 41.99,35.7 46.55,63.87l14.87 -1.75c0.17,29.74 0.17,59.31 0,89.06l-14.87 -2.8c-7.71,35.87 -39.72,57.03 -61.25,84.15 -11.37,17.33 -23.79,34.47 -41.29,46.37 -24.32,33.42 -54.41,61.94 -81.01,93.61 -12.24,16.8 -23.62,35.17 -42.17,46.19 -22.39,38.15 -62.63,61.94 -81.7,102.36 -12.25,-1.05 -24.33,-1.93 -36.58,-2.97 -137.87,-151 -288.87,-289.58 -432.87,-434.63 -53.89,-52.31 -103.75,-108.65 -161.84,-156.24 12.07,-9.45 24.32,-18.73 36.39,-27.82 92.73,-81.89 184.77,-164.48 279.43,-244.09z"/>
    <path class="fil2" d="M7959.5 12384.93c41.29,-0.18 79.61,36.04 77.33,78.21 7.53,-2.45 22.75,-7 30.27,-9.27 1.23,8.39 3.68,25.19 4.9,33.59 56.87,35.87 106.21,88.53 144.7,143.47 8.23,1.4 24.5,4.2 32.72,5.6 -2.27,8.93 -6.65,26.78 -8.92,35.7 9.27,-2.1 27.82,-5.95 37.09,-8.05l0.35 26.42 24.85 -2.1c-2.98,8.92 -8.93,26.77 -11.9,35.69 10.32,-1.4 31.32,-4.19 41.64,-5.6 -0.7,10.68 -2.27,32.02 -3.15,42.7 9.63,-2.1 28.7,-6.48 38.32,-8.57 -0.87,9.79 -2.62,29.21 -3.5,38.83 7,0.7 21.34,2.28 28.35,2.98 34.46,39.72 71.73,76.81 111.27,111.46 0.88,6.99 2.45,21.34 3.15,28.34 9.63,-0.88 29.05,-2.8 38.67,-3.67 -2.1,9.62 -6.47,29.04 -8.57,38.66 10.32,-1.22 30.79,-3.67 41.12,-4.89 -18.2,37.79 15.92,41.11 44.44,45.66 -9.97,14.88 -19.42,30.1 -28.35,45.84 -10.67,0.7 -32.02,2.1 -42.69,2.8l24.32 39.02 -107.43 -89.58 83.64 94.48 -149.78 11.37 138.4 16.1c-13.99,2.8 -41.99,8.57 -55.99,11.37l11.38 25.73 -25.9 -13.65c1.57,56.51 -52.31,93.08 -83.11,134.72l-11.55 -66.14c0,104.11 -92.03,231.66 -220.28,172l139.97 15.39c-12.24,3.15 -36.74,9.28 -48.99,12.43 -7.52,16.97 -15.57,34.12 -23.79,50.91 -30.98,1.93 -93.26,5.78 -124.23,7.53l118.8 18.54c-32.54,1.4 -97.63,4.55 -130.18,6.13l103.76 16.62 -161.49 12.42 143.82 15.92c-13.82,2.81 -41.82,8.41 -55.64,11.2l12.07 24.85 -27.47 -12.25c0.53,9.97 1.58,29.74 2.1,39.54l-27.99 1.06 -84.34 -68.07c23.97,28 72.09,83.63 96.23,111.63l-108.47 -88.53 87.48 97.98 -119.86 -55.46 103.41 70.33 -33.77 -0.87c-0.87,8.22 -2.79,24.84 -3.67,33.24l-22.57 6.3 -59.32 -41.82 47.77 59.32 0.87 22.57 -25.01 -12.78c6.12,56.52 -52.15,82.42 -86.96,113.38l-65.97 -49.69c15.05,20.12 45.49,60.19 60.54,80.32l-31.14 2.62 -89.94 -74.19c25.37,29.22 75.94,87.66 101.31,117.06l-108.31 -88.54 82.59 92.74 -158 12.6 145.22 13.82c-46.36,37.09 -260,42.34 -56.51,49.68 -28,22.05 -44.62,53.9 -67.36,80.67 -39.72,3.14 -119.33,9.62 -159.05,12.77l146.8 16.1c-30.97,4.72 -93.08,14.17 -124.06,18.89l85.39 16.8c-14.17,3.15 -42.69,9.45 -56.86,12.6 4.89,9.62 14.87,29.04 19.77,38.84l-98.86 -82.93 79.09 90.98 -100.08 9.8 92.73 19.95 -37.1 0.87c-6.12,13.47 -13.65,26.42 -22.74,38.49 -3.15,5.6 -9.62,16.8 -12.95,22.4 -7.52,0.53 -22.75,1.57 -30.27,2.27l-19.42 -2.45 28.17 44.62 -98.68 -89.58 51.44 91.86 2.27 13.65c-1.4,5.59 -4.02,16.79 -5.24,22.56 -8.41,5.6 -24.85,16.63 -33.08,22.23 -5.07,9.27 -15.04,27.82 -19.94,37.09l-26.95 -5.95 -87.83 -67.71c25.02,28.52 74.71,85.73 99.73,114.25l-99.73 -79.96 74.88 85.56 -47.58 9.8c2.97,5.77 8.92,17.49 11.89,23.27 -5.42,4.03 -16.09,11.9 -21.34,15.92l7.52 18.72 -19.07 0.88c-20.47,15.57 -45.67,20.47 -70.69,23.44l12.42 24.67 -111.28 -43.56 104.29 62.11c-21.18,-3.67 -63.34,-11.2 -84.52,-15.04l59.14 36.56 -40.06 -13.29 -101.66 -89.59 101.48 117.58 -121.6 -53.02 85.03 58.79c-15.22,0 -45.84,0 -61.24,0l7.53 14.52c-12.6,2.81 -37.8,8.41 -50.22,11.2l-11.72 -160.62 -12.42 167.8c-69.12,3.85 -138.58,3.32 -207.87,-0.18l8.4 -15.05c-25.72,-0.17 -51.26,-0.34 -76.99,-0.7l3.85 -17.84c-25.01,1.57 -49.51,-4.37 -73.83,-8.92l-1.93 -81.71 -35.51 69.46c-36.57,-44.44 -87.84,-114.61 -40.95,-175.15l-14.87 146.1c-3.15,-14.35 -9.28,-42.86 -12.43,-57.03 -8.57,1.92 -25.54,6.12 -34.11,8.04l3.67 -104.98 -18.89 100.96 -8.58 -124.93 -15.22 94.66c-16.97,-27.12 -34.29,-54.24 -60.71,-72.96l136.82 -10.33 -152.75 -12.77 21.17 -13.12c-11.37,-3.15 -34.11,-9.45 -45.66,-12.6l108.48 -14.35c-83.64,23.1 -120.21,1.23 -109.88,-65.61l-24.5 7.17c3.5,-9.8 10.5,-29.22 14,-38.84l-19.42 1.75c-2.63,-12.95 -7.88,-38.67 -10.5,-51.44l71.39 -9.8c-94.14,40.24 -77.52,-28 -82.76,-70.51 -2.45,-54.59 1.22,-109.01 4.54,-163.42l14.18 0.52c-0.17,-14.87 -0.53,-44.79 -0.7,-59.66l17.15 9.97c-12.43,-62.11 18.72,-84.51 93.61,-67.01l-94.49 -13.83c10.32,-3.67 30.97,-11.02 41.29,-14.86 -2.62,-7.71 -7.87,-23.1 -10.5,-30.8l20.65 1.23c7.88,-19.43 15.57,-38.85 23.44,-57.92l12.08 5.6c0.18,-23.62 11.37,-37.45 33.42,-41.82 7.35,-25.9 27.82,-44.09 52.49,-52.66 4.9,-20.83 18.2,-32.02 40.07,-33.77l-3.33 -17.68 22.23 5.78 -3.15 -21c7.34,-0.35 21.86,-0.88 29.04,-1.22 15.05,-32.72 43.39,-59.32 76.81,-72.62l-0.52 -20.29 25.02 9.1 -7.53 -28.35c8.23,3.68 24.67,11.02 33.07,14.7 0.7,-8.05 2.28,-24.32 2.98,-32.37 43.56,-16.97 59.84,-71.21 107.08,-82.24l-5.25 -16.44c21.52,0.52 64.56,1.75 86.08,2.27l-61.59 -23.62c54.77,-6.47 68.94,-71.21 120.38,-86.43l4.2 -29.57c5.6,17.49 16.63,52.31 22.22,69.63 2.1,-19.94 5.95,-60.18 8.05,-80.31 43.92,-14.87 58.61,-70.68 106.03,-80.48l-5.77 -14.7c22.04,-0.88 66.31,-2.28 88.36,-2.97l-64.57 -19.43c55.82,-6.12 68.76,-74.36 122.66,-86.08l-8.05 -18.89 23.44 12.77 -1.22 -16.8c27.64,-21.35 51.79,-47.59 82.93,-64.22 5.96,-20.64 20.13,-32.54 42.17,-35.69l2.98 -29.92c5.94,16.63 17.84,49.69 23.79,66.31 1.58,-19.41 4.9,-58.26 6.48,-77.68 43.92,-14.52 59.66,-68.76 106.03,-81.71l4.37 -29.92c5.6,17.32 16.8,51.79 22.4,69.11 -27.12,-95.18 82.41,-112.86 115.83,-181.96 18.19,9.27 54.59,27.46 72.78,36.74 -12.59,-13.83 -37.79,-41.47 -50.39,-55.29 41.64,4.02 38.15,-46.72 76.11,-46.02 3.33,-11.72 9.98,-34.99 13.3,-46.72l15.4 106.91 9.8 -116.35 20.64 13.47 -5.25 -17.15c28.35,-20.65 51.8,-47.77 83.29,-64.03 5.95,-21.18 20.3,-32.9 42.87,-35.35l-2.98 -22.75 29.4 15.23c0,-11.2 -0.18,-33.43 -0.35,-44.62z"/>
   </g>
   <g id="__x0023_97e4f9ff">
    <g>
     <path class="fil3" d="M11520.11 6900.36c117.93,-20.65 238.31,-13.48 357.29,-9.45 3.67,34.29 9.09,71.04 33.94,97.11 37.8,46.19 102.18,45.66 156.08,55.11 553.07,78.04 1069.75,377.76 1416.36,815.18 21.88,72.96 48.12,144.35 74.72,215.57 167.27,486.93 168.49,1028.11 6.82,1516.62 -165.87,508.46 -511.26,954.63 -958.48,1247 -610.64,404.18 -1412.7,501.64 -2101.37,250.91 -58.44,-22.92 -118.46,-41.47 -179.17,-57.56 -476.61,-373.56 -786.31,-949.38 -838.8,-1552.5 -46.89,-497.62 76.29,-1009.92 348.71,-1429.32 293.42,-455.79 755.17,-801.88 1278.5,-946.76 99.21,-30.27 201.91,-45.66 303.57,-65.78 63.16,-11.9 101.13,-74.89 101.83,-136.13l0 0zm-56.16 664.18c-360.96,55.46 -703.9,228.86 -958.83,490.96 -59.84,59.49 -36.57,171.47 40.07,205.07 55.99,29.21 123.7,6.47 163.77,-38.5 265.6,-262.27 635.31,-414.5 1008.52,-415.2 367.25,-4.72 734.69,135.43 1002.74,387.03 38.49,35.17 77.69,81.54 135.08,79.44 75.58,3.32 141.9,-69.11 132.27,-144.18 -8.92,-74.53 -79.78,-115.48 -128.6,-163.77 -375.48,-331.74 -900.91,-479.23 -1395.02,-400.85z"/>
    </g>
   </g>
   <g id="__x0023_62d8f9ff">
    <path class="fil4" d="M13483.78 7858.31c363.07,443.02 538.91,1031.27 489.39,1601.14 -40.24,498.31 -252.83,981.05 -595.07,1345.86 -345.03,373.56 -820.42,625.51 -1325.03,693.58 -47.42,8.05 -102.01,9.62 -136.83,47.59 -28.69,26.77 -35.69,67.19 -38.84,104.45 -115.66,6.83 -232.19,8.75 -347.31,-6.3 1.4,-69.46 -46.72,-136.47 -118.28,-143.47 -394.56,-57.56 -776.16,-217.31 -1085.51,-470.31 60.71,16.09 120.73,34.64 179.17,57.56 688.67,250.73 1490.73,153.27 2101.37,-250.91 447.22,-292.37 792.61,-738.54 958.48,-1247 161.67,-488.51 160.45,-1029.69 -6.82,-1516.62 -26.6,-71.22 -52.84,-142.61 -74.72,-215.57z"/>
   </g>
  </g>
 </g>
</svg>
