<?xml version="1.0" encoding="UTF-8"?>
<!DOCTYPE svg PUBLIC "-//W3C//DTD SVG 1.1//EN" "http://www.w3.org/Graphics/SVG/1.1/DTD/svg11.dtd">
<!-- Creator: CorelDRAW (Versão de avaliação) -->
<svg xmlns="http://www.w3.org/2000/svg" xml:space="preserve" width="210mm" height="210mm" version="1.1" style="shape-rendering:geometricPrecision; text-rendering:geometricPrecision; image-rendering:optimizeQuality; fill-rule:evenodd; clip-rule:evenodd"
viewBox="0 0 21000 21000"
 xmlns:xlink="http://www.w3.org/1999/xlink"
 xmlns:xodm="http://www.corel.com/coreldraw/odm/2003">
 <defs>
  <style type="text/css">
   <![CDATA[
    .str0 {stroke:#373435;stroke-width:296.33;stroke-miterlimit:22.9256}
    .fil0 {fill:none}
    .fil3 {fill:#91D8F7;fill-rule:nonzero}
    .fil2 {fill:#00AFEF;fill-rule:nonzero}
    .fil1 {fill:#3E4095;fill-rule:nonzero}
   ]]>
  </style>
 </defs>
 <g id="Camada_x0020_1">
  <metadata id="CorelCorpID_0Corel-Layer"/>
  <rect class="fil0" x="8.55" y="9.6" width="20968.64" height="20995.07"/>
  <g id="_1815995863216">
   <path class="fil1 str0" d="M9672.01 6559.2c112.5,-146.79 106.48,-431.33 341.7,-433.74 342.3,-40.31 702.64,-57.16 1038.33,35.49 89.64,118.51 112.49,274.92 208.14,389.82 215.97,135.37 498.11,118.52 703.25,281.54 -130.53,472.86 -280.94,939.67 -377.78,1420.94 -54.76,214.16 -149.81,482.47 -395.25,532.4 -331.47,32.48 -666.56,3.02 -999.22,18.04 -196.72,-7.21 -424.71,25.27 -584.74,-116.1 -135.96,-111.3 -167.85,-293.57 -209.35,-453.6 -104.07,-471.03 -245.44,-931.84 -372.38,-1396.87 181.08,-165.43 449.37,-144.98 647.3,-277.92z"/>
   <path class="fil2 str0" d="M7411.86 8083.61c283.35,-335.09 607.01,-643.1 976.37,-881.92 225,614.82 377.19,1253.08 572.1,1877.54 92.65,321.83 367.58,582.93 688.81,670.75 480.07,38.5 963.74,7.23 1445.61,18.06 416.89,18.04 804.92,-289.97 925.23,-682.2 199.72,-626.24 355.53,-1266.93 578.12,-1885.96 694.83,452.99 1239.25,1135.78 1502.75,1924.47 129.35,333.26 153.41,691.81 226.19,1038.92 119.11,57.75 241.84,112.49 348.92,191.91 126.94,116.71 127.53,298.39 142.57,457.2 -77.6,10.83 -155.19,18.04 -233.4,21.65 -2567.55,-0.59 -5135.11,-0.59 -7702.65,0.6 -238.23,-4.21 -478.86,18.66 -715.28,-25.25 19.24,-130.56 12.62,-273.12 89.04,-387.42 78.8,-137.77 242.43,-179.28 377.78,-236.42 32.49,-130.56 67.97,-260.5 90.24,-392.85 76.4,-617.22 341.71,-1198.34 687.6,-1709.08z"/>
   <path class="fil3 str0" d="M6477.61 11119.19c273.12,-46.93 551.05,-15.65 826.58,-23.46 292.37,8.42 586.53,-20.47 877.11,19.25 48.72,645.49 393.42,1251.29 901.17,1646.52 422.31,308.62 946.28,478.86 1469.65,468.63 667.15,-23.45 1327.09,-334.48 1748.8,-855.45 287.56,-360.34 467.44,-804.31 507.73,-1263.91 558.87,-32.49 1120.14,-9.64 1680.22,-13.24 -5.41,249.06 -219.57,392.23 -436.75,450.59 -540.81,138.36 -847.03,788.07 -659.33,1302.41 86.03,194.32 232.21,410.29 128.73,627.46 -117.3,218.37 -309.2,435.54 -565.48,477.05 -235.82,9.63 -422.91,-179.88 -656.33,-188.9 -393.42,-39.1 -809.73,127.54 -1049.74,445.16 -148,198.53 -116.71,540.83 -384.42,635.88 -260.48,83.02 -588.95,130.54 -819.97,-48.72 -141.96,-204.54 -161.21,-485.49 -366.36,-649.11 -291.77,-226.2 -653.92,-441.56 -1037.72,-366.36 -173.85,62.57 -317.03,191.9 -497.51,239.42 -241.83,6.62 -413.89,-197.31 -573.3,-351.32 -169.65,-157 -157.62,-421.71 -42.71,-606.39 235.22,-374.79 98.65,-859.07 -141.99,-1195.94 -157,-230.42 -446.37,-286.96 -684,-398.25 -143.17,-58.95 -178.06,-220.78 -224.38,-351.32z"/>
  </g>
 </g>
</svg>
