<?xml version="1.0" encoding="UTF-8"?>
<!DOCTYPE svg PUBLIC "-//W3C//DTD SVG 1.0//EN" "http://www.w3.org/TR/2001/REC-SVG-20010904/DTD/svg10.dtd">
<!-- Creator: CorelDRAW (Versão de avaliação) -->
<svg xmlns="http://www.w3.org/2000/svg" xml:space="preserve" width="210mm" height="297mm" version="1.0" style="shape-rendering:geometricPrecision; text-rendering:geometricPrecision; image-rendering:optimizeQuality; fill-rule:evenodd; clip-rule:evenodd"
viewBox="0 0 21000 29700"
 xmlns:xlink="http://www.w3.org/1999/xlink"
 xmlns:xodm="http://www.corel.com/coreldraw/odm/2003">
 <defs>
  <style type="text/css">
   <![CDATA[
    .fil0 {fill:#E6E7E8;fill-rule:nonzero;fill-opacity:0.972549}
   ]]>
  </style>
 </defs>
 <g id="Camada_x0020_1">
  <metadata id="CorelCorpID_0Corel-Layer"/>
  <g id="intro-bg-circuit-cyan.pdf">
   <path class="fil0" d="M124.89 51.19c29.21,0.44 58.2,0.87 87.42,1.52 -1.09,4034.51 -0.87,8069.23 0,12103.74 1146.78,1144.4 2290.31,2292.04 3437.74,3435.8 71.62,-48.9 157.96,-80.06 245.81,-69.89 164.01,7.35 306.6,148 320.01,310.93 13.42,91.74 -20.77,181.32 -69.02,257.48 114.03,114.47 230,226.98 341.87,343.6 567.12,4.76 1134.45,0.65 1701.56,2.17 58.21,52.36 113.16,108.4 172.67,159.68 123.98,-85.04 315.47,-51.71 388.82,84.17 84.61,133.94 19.48,333.43 -131.12,386.66 -124.85,54.09 -283.88,-5.19 -341,-128.74 -45.01,-87.63 -31.38,-193.87 17.52,-276.31 -46.74,-49.12 -96.5,-95.2 -147.78,-139.35 -563.01,0.65 -1126.23,2.17 -1689.23,-0.65 -134.15,-115.54 -248.4,-254.45 -382.55,-370.65 -141.73,114.25 -371.3,86.56 -482.52,-57.33 -104.51,-122.25 -102.77,-312.23 -8,-439.46 -1145.7,-1143.75 -2289.02,-2289.88 -3434.72,-3433.63 -20.56,-15.58 -29.64,-35.93 -27.7,-61.02 0.44,-4036.24 0,-8072.48 0.22,-12108.72zm3644.82 15575.25c-100.62,39.59 -170.29,144.53 -166.83,252.93 2.82,139.35 130.04,262.68 270.47,254.89 157.74,1.3 291.67,-166.17 250.35,-319.8 -30.3,-152.11 -210.11,-250.34 -353.99,-188.02zm2709.43 1021.06c-72.48,17.74 -130.69,85.47 -133.93,160.55 -9.52,108.84 103.21,208.15 210.1,182.19 76.38,-13.42 131.55,-83.74 141.07,-158.17 10.39,-112.52 -106.24,-218.32 -217.24,-184.57zm-5651.25 -10267.59c1.73,-2110.08 -3.46,-4220.37 2.38,-6330.45 21.2,0.65 63.39,2.17 84.38,2.82 0.22,3859.45 -0.21,7719.13 0.44,11578.59 1411.62,1410.11 2821.3,2822.6 4233.57,4232.27 693.48,-0.64 1387.17,-0.21 2080.65,-0.21 28.99,-5.84 46.95,18.82 65.35,36.35 59.28,60.37 118.35,120.95 180.02,178.94 4.11,698.67 0.43,1397.56 1.95,2096.45 7.35,33.32 -20.99,54.09 -41.11,75.3 -61.89,60.36 -122.69,121.81 -183.71,183.27 109.49,126.14 96.07,337.97 -36.35,442.69 -128.09,113.17 -348.15,89.37 -448.11,-49.54 -95.42,-123.77 -78.54,-320.24 41.76,-421.93 100.4,-93.05 259.44,-98.24 375.19,-30.73 69.89,-66.43 136.75,-135.88 205.13,-203.61 0,-683.3 0.21,-1366.83 0,-2050.14 -56.91,-56.69 -113.6,-113.38 -170.29,-170.28 -704.73,0.21 -1409.24,-0.44 -2113.97,0.43 -1426.77,-1424.39 -2851.16,-2850.94 -4277.07,-4275.98 -0.43,-1764.75 -0.21,-3529.5 -0.21,-5294.24zm6100.01 12058.52c-55.18,27.04 -101.69,75.73 -120.09,135.23 -39.38,116.84 41.12,254.46 162.5,276.31 140.43,36.57 286.05,-100.83 260.95,-242.77 -17.31,-136.97 -177.21,-229.14 -303.36,-168.77zm-5786.05 -18387.89c29.64,1.09 59.28,2.38 88.93,3.9 -4.76,2454.76 -0.87,4909.74 -2.17,7364.71 0.87,1356.67 -1.51,2713.12 1.3,4069.57 117.28,135.01 252.73,255.1 376.93,384.28 1230.94,1230.95 2461.46,2462.33 3693.06,3692.63 780.9,0 1562.01,-1.08 2343.12,0.65 69.67,76.81 152.11,142.59 216.16,224.16 2.81,1187.9 0.21,2375.79 1.29,3563.68 196.9,24.88 326.08,252.29 242.34,433.62 -67.29,176.55 -308.55,243.85 -460.44,133.93 -128.31,-82.65 -172.02,-264.19 -102.56,-398.56 43.92,-90.01 134.58,-151.68 232.82,-167.26 2.16,-1151.97 -0.44,-2303.73 1.29,-3455.7 -3.89,-31.38 10.17,-71.84 -17.96,-94.78 -53.01,-50.41 -99.96,-108.19 -158.38,-151.89 -777.43,-1.73 -1554.86,-2.38 -2332.29,0.43 -1377.44,-1370.73 -2749.04,-2747.51 -4123.66,-4121.27 0.43,-3827.44 0,-7654.66 0.22,-11482.1zm6593.77 19412.63c-151.24,55.83 -183.05,279.34 -51.06,373.25 118.14,101.26 320.67,23.8 345.76,-128.31 40.25,-160.33 -144.32,-315.69 -294.7,-244.94zm-6377.4 -19411.98c29.21,0.44 58.21,0.87 87.42,1.3 -1.3,3753.01 -0.22,7506.01 -0.65,11259.01 1328.75,1328.54 2657.29,2657.08 3985.82,3985.83 21.85,23.37 58.21,10.17 86.55,14.5 656.69,-1.3 1313.39,-0.22 1970.3,-0.44 199.93,0.65 400.29,-3.68 600.22,6.93 70.97,74.21 145.41,144.97 216.81,218.97 -0.65,507.61 -1.51,1015.01 0.43,1522.41 77.68,15.79 154.49,47.6 208.59,107.96 137.83,137.4 124.19,391.43 -29,512.38 -142.59,124.84 -383.2,102.34 -498.96,-48.04 -116.19,-137.61 -99.53,-362.86 35.49,-482.08 54.31,-49.98 124.41,-77.9 196.47,-90.22 -2.17,-493.34 1.73,-986.89 -1.95,-1480.01 -47.82,-65.34 -113.82,-115.97 -168.77,-175.47 -877.18,-14.93 -1755.01,-0.22 -2632.19,-7.36 -40.68,-20.56 -66.64,-61.88 -100.4,-91.53 -1318.58,-1317.28 -2634.35,-2637.16 -3954.66,-3952.71 -3.68,-3767.07 -0.65,-7534.36 -1.52,-11301.43zm6824 17106.95c-109.05,33.33 -189.54,143.03 -187.16,257.27 1.95,124.2 101.47,237.36 224.38,255.76 158.17,28.56 318.28,-117.28 301.19,-278.04 -3.89,-162.72 -184.35,-289.51 -338.41,-234.99zm-6515.66 -17106.73c28.77,0 57.77,0 86.55,0.22 0.65,3716 -1.52,7432.01 1.08,11148.23 1210.61,1206.93 2417.97,2417.54 3627.29,3625.77 82.87,76.82 155.14,166.83 244.07,235.42 907.47,2.59 1815.16,1.08 2722.85,0.86 135.45,132.64 267.65,268.74 403.53,401.16 2.6,890.17 0,1780.54 1.3,2670.7 279.78,20.56 500.9,307.91 439.89,583.57 -31.16,184.78 -179.37,344.46 -361.78,388.17 -182.62,48.25 -389.69,-18.82 -506.96,-167.05 -114.03,-138.91 -140.86,-341.86 -69.68,-506.31 67.51,-166.39 233.47,-280.42 410.69,-297.94 2.15,-876.1 -0.87,-1752.2 1.51,-2628.08 -120.52,-118.36 -234.55,-246.88 -362.43,-355.5 -907.69,-3.03 -1815.59,-1.09 -2723.28,-1.09 -1285.69,-1283.31 -2568.79,-2569.22 -3854.27,-3852.75 -22.28,-27.48 -65.56,-48.03 -60.36,-89.14 0,-3718.6 0,-7437.42 0,-11156.24zm6955.98 18179.73c-188.24,37.65 -333,223.95 -318.72,416.31 5.2,205.12 189.11,382.76 393.59,386 219.62,9.74 419.54,-185.21 417.81,-404.61 5.85,-247.97 -250.34,-460.02 -492.68,-397.7zm-6717.98 -18179.73c28.78,0 57.78,0 86.55,0 0.22,3661.26 -0.21,7322.31 0.22,10983.35 -4.76,41.12 38.52,61.46 60.81,88.93 1216.23,1215.16 2431.39,2431.18 3647.19,3646.77 993.37,-0.22 1986.74,0.21 2979.9,-0.22 197.12,196.04 393.8,392.29 589.62,589.62 128.31,-83.95 311.15,-84.6 431.02,15.58 168.12,124.41 182.83,398.99 30.29,541.59 -125.71,128.3 -348.36,138.26 -485.11,21.85 -154.92,-121.39 -175.05,-372.38 -43.06,-518 -185.21,-191.06 -374.11,-378.87 -564.3,-564.96 -968.06,3.47 -1936.11,-0.21 -2904.17,1.95 -28.13,-4.33 -64.7,8.66 -86.55,-14.71 -1247.4,-1247.83 -2495.23,-2495.01 -3742.62,-3742.84 0.43,-3682.89 0.21,-7365.79 0.21,-11048.91zm7496.71 15343.72c-140.43,37.86 -233.46,198.63 -189.54,338.62 35.49,129.18 174.61,221.57 307.68,195.6 141.94,-20.76 250.56,-165.95 226.97,-308.11 -17.95,-158.17 -192.35,-273.28 -345.11,-226.11zm-7275.14 -14812.74c2.38,-177.86 -4.75,-356.15 3.68,-533.79 20.77,1.08 62.31,3.03 83.09,3.89 0.21,3602.19 0,7204.17 0.21,10806.15 -4.54,28.77 21.86,45.65 38.52,64.47 1211.04,1207.59 2417.54,2419.93 3629.67,3626.64 1232.47,-3.67 2465.15,1.31 3697.83,-2.59 318.93,311.79 631.16,630.51 947.94,944.69 0.86,297.08 -1.09,594.16 0.86,891.24 -268.08,270.68 -538.34,539.21 -807.72,808.59 127.01,161.42 91.31,422.58 -86.55,531.63 -180.24,126.37 -460.88,39.82 -534.66,-168.77 -80.71,-187.16 31.8,-425.39 228.27,-479.7 112.73,-38.08 235.63,-6.71 333,56.04 256.4,-262.68 516.91,-521.24 778.08,-779.16 4.76,-273.28 0.22,-546.56 2.38,-819.63 -297.95,-299.89 -597.19,-598.49 -896.44,-896.87 -1235.49,-0.21 -2471.2,1.3 -3706.7,-0.86 -1235.92,-1239.17 -2475.75,-2474.88 -3711.89,-3714.06 1.08,-3445.97 0,-6891.94 0.43,-10337.91zm7208.93 16583.76c-114.24,43.49 -189.76,168.56 -171.37,290.16 15.15,123.98 123.12,227.19 247.53,237.58 175.92,20.55 338.63,-161.85 290.59,-334.08 -32.23,-156.66 -218.32,-260.52 -366.75,-193.66zm-6889.56 -17114.52c28.78,-0.22 57.77,-0.22 86.55,-0.22 0,3574.49 -0.22,7148.78 0.22,10723.06 -5.41,40.46 37.21,61.01 59.28,88.06 1148.73,1146.78 2295.08,2295.94 3444.03,3442.72 1219.48,-0.86 2439.18,0.22 3658.88,-0.43 41.11,5.63 93.25,-15.15 126.8,16.66 296.42,296 591.77,593.3 889.29,888.43 16.01,18.39 42.84,35.27 38.52,63.84 -0.87,388.38 1.94,776.78 -1.3,1164.95 -227.84,244.5 -473,475.16 -707.54,714.47 0,396.18 0,792.36 0,1188.54 94.76,21.42 184.13,81.36 219.83,174.83 63.4,148.21 -18.82,339.92 -177.21,382.98 -160.55,58.2 -351.61,-60.8 -370.43,-230.22 -27.27,-153.41 90.01,-303.79 241.26,-327.59 0,-408.73 0,-817.46 0,-1226.19 234.11,-235.42 470.61,-468.66 703.64,-705.16 11.9,-349.01 0.87,-700.41 5.41,-1050.28 -2.81,-29.21 8.44,-64.92 -18.61,-85.26 -292.97,-291.89 -583.78,-586.15 -878.04,-876.74 -173.53,-15.15 -351.61,-1.73 -526.87,-6.27 -1081.22,-0.22 -2162.44,0.43 -3243.66,-0.22 -1182.92,-1184.22 -2367.14,-2367.14 -3550.27,-3551.13 0.44,-3596.35 0,-7192.7 0.22,-10788.83zm7494.76 18391.34c-80.06,22.72 -139.35,102.35 -138.48,185.65 -0.22,87.2 66.43,167.04 150.81,186.51 113.81,32.46 238.88,-70.75 234.77,-187.37 4.97,-122.04 -130.48,-227.63 -247.1,-184.79zm-7024.15 -18392.21c29.43,0.87 58.64,1.73 88.07,2.81 -2.38,2989.21 -1.73,5978.63 -0.22,8968.05 112.52,17.96 217.46,83.3 273.28,184.35 93.47,159.68 38.08,386.66 -121.17,482.3 -43.7,36.56 -107.32,35.7 -151.89,63.83 -3.03,209.66 -0.44,419.55 -1.09,629.43 550.25,549.37 1099.4,1099.61 1649.64,1648.98 126.15,-88.06 307.25,-94.77 431.66,0 160.12,110.36 194.96,354.64 77.25,508.05 -120.3,173.32 -396.83,194.52 -543.53,43.49 -135.23,-123.33 -142.37,-350.09 -29.21,-490.3 -537.25,-537.69 -1074.51,-1075.38 -1612.42,-1612.2 -24.02,-28.57 -68.15,-51.28 -60.58,-94.78 0.43,-213.56 -0.44,-427.33 0.64,-640.89 -91.95,-14.5 -181.31,-59.07 -238.22,-134.37 -109.49,-132.86 -102.56,-345.33 15.15,-470.83 57.34,-64.48 138.91,-100.83 222.43,-116.2 0.43,-2990.5 0,-5981 0.21,-8971.72zm-28.12 9068.88c-115.55,33.11 -204.91,146.48 -200.15,268.3 0,130.69 105.81,250.35 235.41,267 179.16,32.9 352.69,-154.05 305.09,-330.4 -29,-147.78 -195.82,-250.12 -340.35,-204.9zm1903 2941.38c-114.67,33.11 -200.36,149.09 -193.44,269.39 -1.29,150.38 143.68,280.85 293.19,265.71 158.39,-8.87 286.05,-173.75 247.54,-329.11 -28.14,-151.46 -200.15,-256.62 -347.29,-205.99zm-1122.98 -12009.39c21.43,0 64.7,-0.22 86.34,-0.44 0.86,3493.57 0.21,6987.15 0.21,10480.72 1001.16,1001.81 2003.41,2002.54 3004.14,3004.79 1339.78,0.65 2679.57,0.43 4019.36,0 239.52,237.57 476.46,477.75 716.41,714.9 122.47,-1.09 244.94,-0.65 367.4,-0.22 15.8,-128.53 73.57,-253.59 173.97,-337.55 168.34,-153.62 443.57,-164.87 626.4,-30.07 160.98,111.21 239.1,322.18 199.28,512.59 -41.97,233.9 -269.17,413.92 -506.31,402.02 -251.21,0.65 -473,-211.61 -492.69,-460.45 -136.31,-0.21 -272.63,0.44 -408.73,-0.42 -222.86,-224.61 -448.11,-446.82 -670.54,-671.85 -21.21,-17.96 -40.46,-48.89 -72.7,-41.76 -1331.13,-1.08 -2662.27,2.6 -3993.39,-1.95 -1013.93,-1017.6 -2029.59,-2033.47 -3047.42,-3047.19 -4.54,-3507.64 -0.65,-7015.27 -1.73,-10523.12zm8564.3 13847.93c-187.6,62.53 -314.17,270.25 -275.66,465.41 26.4,155.58 147.78,290.38 300.54,331.05 146.7,42.85 315.26,-6.48 416.09,-121.16 112.73,-116.63 142.37,-302.93 75.08,-449.85 -82.22,-191.49 -319.15,-298.16 -516.05,-225.45zm-8396.82 -12560.08c2.16,-430.15 -4.33,-860.52 3.24,-1290.45 20.77,0.87 62.54,2.6 83.52,3.46 1.3,3433.2 -2.38,6866.62 1.95,10299.83 945.55,942.09 1889.38,1886.13 2831.47,2831.47 1384.57,3.46 2769.15,0.87 4153.51,1.29 24.45,-143.24 149.73,-265.92 298.6,-265.7 166.82,-14.72 323.26,131.12 322.83,298.16 12.55,174.62 -147.14,335.16 -322.19,320.67 -148.64,0 -273.71,-121.82 -298.15,-265.06 -1385.88,-2.16 -2771.97,-0.43 -4157.85,-0.87 -44.79,5.2 -67.29,-41.75 -97.15,-65.99 -897.52,-898.6 -1796.12,-1796.12 -2693.85,-2694.51 -38.95,-51.49 -113.39,-84.81 -125.93,-150.37 -0.22,-3007.39 0,-6014.55 0,-9021.93zm7320.36 11675.32c-148.44,40.89 -212.05,246.02 -102.78,358.53 99.1,128.53 324.34,88.07 375.19,-65.34 71.84,-162.93 -104.72,-352.04 -272.41,-293.19zm-7022.64 -12963.39c28.78,0 57.56,0 86.55,0 0,3334.97 0,6669.72 0,10004.48 876.97,877.18 1754.37,1753.93 2631.11,2631.32 30.29,23.8 51.5,70.75 94.56,70.75 1508.13,0 3016.47,0.65 4524.59,-0.21 88.29,85.9 174.18,174.4 262.25,260.95 111.43,-96.08 286.91,-111.22 406.35,-20.99 135.67,93.04 172.88,295.78 83.08,432.74 -89.58,152.98 -311.58,195.82 -454.38,92.83 -141.07,-91.53 -176.13,-293.84 -92.82,-435.78 -65.78,-67.94 -133.72,-133.72 -199.72,-201.44 -20.99,-17.74 -39.81,-48.47 -71.83,-41.11 -1505.75,-0.87 -3011.71,1.94 -4517.24,-1.3 -131.12,-111.22 -246.23,-243.64 -371.08,-362.86 -793.88,-793.66 -1587.54,-1587.54 -2381.42,-2381.2 0,-3349.46 0,-6698.72 0,-10048.18zm7756.36 12987.41c-95.2,27.04 -169.85,122.25 -167.26,222.21 0,102.35 78.76,198.85 178.95,220.05 133.5,35.92 277.82,-82.21 276.52,-218.97 6.93,-144.32 -149.51,-268.51 -288.21,-223.29zm-7168.25 -12985.25c29.21,-1.08 58.64,-1.94 88.06,-2.81 0.22,3210.99 -0.21,6421.76 0.22,9632.53 819.41,818.98 1638.82,1637.95 2457.36,2457.58 27.05,21.85 47.38,64.48 87.63,59.93 1629.94,0.43 3259.89,0.22 4889.83,0.22 285.83,285.18 570.58,571.44 857.06,855.97 18.83,19.91 45.44,40.03 38.51,72.05 -0.86,1184 0.87,2368.22 -0.86,3552.22 142.16,23.15 266.36,135.45 287.56,280.42 37.43,182.61 -105.81,375.62 -291.67,391.63 -183.05,27.91 -368.92,-122.03 -375.84,-308.11 -20.56,-176.57 121.6,-339.71 293.4,-363.73 1.08,-1154.57 -0.43,-2309.14 0.87,-3463.49 -4.11,-31.81 10.38,-72.71 -18.18,-95.86 -278.04,-278.26 -556.29,-556.08 -834.12,-834.55 -1637.09,-0.87 -3274.17,1.73 -4911.04,-1.3 -133.72,-115.54 -252.51,-250.35 -380.6,-373.03 -728.96,-728.53 -1457.28,-1457.93 -2186.68,-2186.03 -1.51,-3224.62 1.73,-6449.23 -1.51,-9673.64zm8314.17 16723.11c-76.38,19.25 -141.94,76.16 -171.59,149.08 -54.31,122.03 13.63,273.28 135.67,322.39 136.74,65.57 312.44,-32.02 338.84,-178.93 42.63,-168.99 -134.58,-341.45 -302.92,-292.54zm-8101.69 -16725.05c28.78,-0.22 57.56,-0.22 86.55,-0.22 0.86,3182.64 -1.73,6365.28 1.3,9547.71 786.95,782.41 1569.57,1569.36 2355.22,2353.07 1693.57,-1.08 3387.13,1.3 5080.9,-1.3 301.63,296.65 599.14,597.84 898.6,896.87 0.65,1209.31 -2.38,2418.41 1.51,3627.73 233.9,228.7 462.61,462.82 695.43,692.61 19.69,20.12 46.09,41.1 38.73,74 -1.73,462.61 2.81,925.21 -2.16,1387.82 68.59,-93.04 164.44,-169.42 278.25,-197.55 162.72,-44.79 347.29,-1.73 469.75,115.33 133.07,121.6 189.11,319.58 139.13,492.68 -42.41,166.61 -180.24,304.87 -347.06,346.85 -148.22,41.11 -315.69,8.87 -436,-87.85 -120.08,-90.44 -187.37,-239.53 -191.27,-388.39 4.11,-554.35 3.03,-1109.14 0.87,-1663.48 -244.51,-241.48 -487.28,-484.68 -729.18,-728.54 -12.12,-248.39 -1.52,-498.95 -4.98,-748 0.22,-959.83 -0.43,-1919.45 0.22,-2879.28 -283.24,-284.97 -568.2,-568.64 -852.31,-852.95 -1691.82,1.08 -3383.87,-1.52 -5075.69,1.29 -799.29,-793.22 -1592.51,-1592.29 -2390.07,-2387.03 -28.12,-22.5 -14.5,-62.53 -18.17,-92.61 1.08,-3169.66 0,-6339.32 0.43,-9508.76zm9486.48 18458.64c-167.26,33.53 -309.63,180.45 -322.18,353.12 -28.57,175.04 83.74,355.5 245.58,421.71 142.38,62.96 319.8,30.51 431.67,-77.68 115.97,-104.29 164.22,-280.2 109.7,-427.55 -59.94,-188.25 -270.9,-313.1 -464.77,-269.6zm-9253.88 -18459.08c29,0.44 58.2,0.87 87.42,1.3 -0.87,3111.68 -1.08,6223.13 0,9334.8 748.21,746.49 1495.36,1494.28 2242.28,2241.85 29.42,24.24 52.14,70.54 97.15,63.4 1716.71,-0.43 3433.64,0.22 5150.35,-0.22 27.26,-2.59 42.19,25.1 61.02,39.82 323.91,325.42 648.68,649.55 973.46,973.89 1.74,1193.3 -2.38,2386.61 2.17,3579.91 255.32,251.21 506.96,506.1 760.77,759.04 -0.44,223.08 -0.22,446.16 -0.22,669.46 129.82,20.99 241.91,128.31 253.38,261.81 22.06,154.28 -98.67,310.72 -253.6,327.59 -167.04,29.21 -337.75,-112.08 -336.02,-282.58 -11.9,-148.87 106.67,-281.29 249.69,-307.25 -4.54,-211.61 9.09,-426.69 -6.71,-636.14 -244.28,-247.75 -491.82,-492.04 -737.19,-738.48 -29.2,-22.72 -16.44,-62.53 -19.47,-93.48 1.52,-1166.47 -0.21,-2333.16 0.87,-3499.84 -320.24,-322.84 -643.71,-642.42 -963.51,-965.68 -1734.24,-1.95 -3468.7,-1.95 -5202.93,0 -787.82,-781.98 -1568.93,-1571.31 -2356.96,-2353.07 -4.55,-3125.3 -0.87,-6250.83 -1.95,-9376.13zm9148.94 17874.22c-48.04,96.28 -1.3,223.94 96.93,267.43 106.89,58.86 254.89,-11.03 283.02,-128.3 33.97,-104.73 -37.43,-216.16 -136.75,-251.43 -39.81,12.33 -81.14,12.76 -120.95,1.51 -50.42,23.59 -99.75,57.56 -122.25,110.79zm-8883.88 -17874c28.78,0 57.56,0 86.55,0 0,3089.6 0,6179.2 0,9268.81 715.11,714.89 1430.23,1430.01 2145.34,2145.13 1831.61,-0.22 3663.43,0.21 5495.25,-0.22 95.21,95.64 192.36,189.33 285.4,287.56 124.63,-82.01 303.36,-81.14 410.9,29.21 112.51,105.6 118.57,288.21 32.88,412.19 95.21,94.99 190.42,189.98 285.4,285.4 -0.43,1247.83 -0.22,2495.66 0,3743.48 326.51,325.87 652.37,652.37 978.87,978.45 0.44,809.88 -0.42,1619.99 0.44,2429.88 166.17,24.02 290.8,197.98 246.45,363.07 -30.95,167.48 -225.68,272.63 -384.07,213.35 -142.8,-42.63 -227.4,-204.48 -193.22,-347.5 23.81,-119.01 129.83,-205.77 244.94,-230.87 -2.81,-796.26 -0.87,-1592.3 -1.08,-2388.34 -325.43,-326.72 -651.07,-653.23 -978.45,-978.22 -1.3,-1209.31 -0.43,-2418.63 -0.43,-3627.94 -2.6,-40.68 5.84,-83.09 -6.28,-122.04 -83.51,-86.98 -170.5,-170.72 -255.53,-256.19 -115.11,77.9 -281.29,80.28 -387.53,-14.27 -127.01,-99.97 -143.02,-296.87 -52.14,-426.05 -74.87,-75.3 -150.82,-149.51 -224.6,-225.67 -19.47,-17.31 -37.65,-45.01 -67.72,-38.52 -1823.17,-0.65 -3646.34,0.43 -5469.72,-0.65 -729.4,-731.12 -1459.23,-1461.6 -2190.79,-2190.56 -1.94,-3103.24 -0.21,-6206.26 -0.86,-9309.49zm8081.13 11769.22c105.59,100.62 205.55,207.08 311.36,307.69 44.14,-74.44 49.98,-172.67 -0.65,-245.37 -63.18,-102.13 -213.34,-135.67 -310.71,-62.32zm-71.19 62.97c-39.81,90.22 -38.51,206.42 38.52,277.17 72.27,78.12 191.06,81.15 281.5,34.19 -105.81,-104.51 -204.04,-218.54 -320.02,-311.36zm1600.74 7851.99c-139.78,44.36 -181.75,246.23 -67.94,340.14 102.56,107.75 300.76,45.22 332.56,-96.72 48.26,-148.65 -120.08,-302.28 -264.62,-243.42zm-9096.79 -19684.83c29.21,0.87 58.64,1.73 88.06,2.81 -3.03,2981.85 -0.22,5963.7 -1.3,8945.77 -2.38,25.74 6.93,46.73 27.92,62.74 607.14,607.15 1215.8,1212.99 1820.78,1822.3 1973.33,4.11 3946.88,1.3 5920.21,1.3 242.12,241.69 485.54,482.08 724.85,726.58 -1.95,1509.43 -2.38,3019.07 0.22,4528.49 99.53,118.79 220.05,222.43 327.59,335.6 185.64,184.35 368.92,371.3 556.29,554.13 4.33,683.75 0.44,1367.7 1.95,2051.66 -4.76,28.13 22.94,44.57 38.74,63.4 78.97,76.6 155.56,156.01 234.76,232.81 125.06,-85.89 307.9,-81.57 423.01,20.13 133.72,110.13 158.6,324.13 55.18,462.61 -108.19,158.6 -354.21,188.67 -498.53,62.74 -147.14,-115.54 -160.33,-345.54 -45.66,-488.57 -101.05,-94.77 -197.11,-194.74 -294.91,-292.53 0.64,-690.67 0.86,-1381.34 -0.22,-2072 -294.49,-297.08 -596.55,-588.32 -885.19,-890.6 -4.33,-1512.23 1.95,-3024.69 -3.03,-4536.92 -212.69,-209.02 -422.57,-420.63 -632.89,-632.03 -18.6,-15.8 -35.05,-42.63 -62.96,-37.87 -1954.73,-0.21 -3909.23,-0.21 -5863.73,0 -33.11,6.49 -52.37,-24.67 -73.35,-42.84 -604.55,-605.85 -1209.75,-1211.26 -1815.81,-1815.59 -18.4,-20.99 -48.69,-40.25 -42.2,-72.49 0.22,-2997.21 0,-5994.42 0.22,-8991.63zm9859.29 19367.63c-86.76,27.04 -151.46,103.85 -170.29,191.7 -34.83,149.3 95.43,307.69 248.62,305.31 166.82,5.19 308.33,-181.97 242.12,-339.71 -41.54,-128.31 -193.44,-203.61 -320.45,-157.3zm-9583.41 -19366.76c21.41,0 64.69,-0.22 86.33,-0.44 0.86,2952.64 0.21,5905.28 0.21,8857.92 575.99,576.42 1152.41,1152.4 1728.4,1728.61 2038.67,-0.22 4077.13,0 6115.59,-0.22 31.59,-6.92 50.42,23.15 70.97,40.89 227.84,228.71 455.68,457.64 685.26,684.61 2.16,1568.28 -1.09,3136.56 1.51,4704.83 229.79,226.55 456.77,456.34 685.47,684.18 64.49,70.54 142.81,130.69 199.5,207.5 3.03,511.29 0.43,1022.8 1.3,1534.31 222.22,19.9 364.37,284.53 262.24,482.08 -79.84,180.24 -328.23,246.02 -489.22,135.45 -162.28,-98.89 -198.84,-342.74 -80.92,-489 51.93,-72.06 136.1,-112.31 221.35,-128.96 -0.65,-501.56 1.3,-1002.89 -1.08,-1504.45 -284.1,-279.99 -563.44,-564.52 -847.1,-844.73 -17.75,-19.68 -45.88,-38.08 -38.95,-68.59 0,-1557.45 0.21,-3115.13 -0.22,-4672.59 -225.46,-225.68 -452.22,-450.06 -675.95,-677.25 -2040.19,-3.03 -4080.38,-0.21 -6120.57,-1.51 -40.25,4.98 -59.72,-36.57 -86.33,-58.21 -571.88,-571.88 -1142.24,-1145.27 -1716.28,-1714.76 -3.89,-2966.49 -0.65,-5932.97 -1.51,-8899.67zm9451.85 18542.15c-82,28.13 -147.35,101.27 -163.14,186.95 -35.05,143.67 93.04,302.49 241.9,296.44 135.89,6.7 259.22,-119.23 250.35,-254.9 3.03,-159.9 -180.03,-288.21 -329.11,-228.49zm-9121.89 -18542.8c29.22,0.65 58.64,1.51 88.07,2.38 -2.6,2714.19 -0.87,5428.6 -1.08,8143.01 241.9,239.74 480.78,482.51 723.34,721.39 314.82,11.9 632.24,1.52 947.93,4.98 134.37,-8.44 278.47,-4.54 396.4,68.16 144.53,84.38 234.55,252.07 226.32,418.9 -1.51,154.27 -88.49,302.92 -218.97,383.84 -158.82,102.56 -381.25,94.56 -531.85,-19.9 -164.65,-118.15 -233.46,-349.01 -163.14,-538.78 28.99,-91.52 96.5,-161.2 163.14,-227.18 -283.45,4.97 -566.68,-1.09 -850.13,3.24 -259.86,-255.97 -517.78,-514.1 -773.97,-773.76 -14.49,-220.26 -1.94,-444.64 -6.06,-666.64 0,-2506.48 0,-5013.17 0,-7519.64zm1805.21 8976.27c-186.73,50.19 -315.26,257.05 -268.52,446.38 37.43,201.87 258.35,346.19 458.28,294.7 204.69,-40.9 345.33,-268.74 286.91,-469.96 -49.33,-202.1 -276.52,-334.74 -476.67,-271.12zm-1507.26 -976.5c-1.3,-2666.37 -0.65,-5332.96 -0.21,-7999.34 21.63,0 64.69,0 86.11,0 1.73,2650.58 -1.51,5301.16 1.73,7951.74 5.19,7.57 15.36,22.72 20.56,30.29 177.43,171.8 345.33,354.64 527.73,520.38 459.37,2.38 918.73,0.65 1378.09,0.87 107.97,107.1 215.51,214.86 322.83,322.61 -0.44,257.05 -0.22,514.1 -0.44,771.16 -7.14,33.32 26.19,51.93 44.36,73.78 44.58,43.27 86.77,88.71 133.94,129.39 153.41,-123.33 408.08,-74.86 500.47,100.4 106.02,170.93 18.83,420.63 -171.15,487.27 -157.73,62.32 -354.64,-9.3 -427.12,-164.23 -58.86,-114.45 -42.41,-257.48 32.02,-360.69 -66.21,-65.13 -130.9,-131.99 -197.98,-196.03 -3.03,-267.88 -0.43,-535.53 -1.3,-803.18 -90.66,-91.32 -181.97,-182.19 -272.85,-273.28 -462.17,-0.65 -924.35,0.86 -1386.3,-0.65 -196.26,-197.56 -392.94,-394.24 -590.49,-590.49zm2659.89 1827.49c-76.17,20.34 -142.59,76.38 -172.67,149.73 -52.8,119.66 10.17,273.5 130.69,323.49 139.56,70.53 324.78,-27.7 350.31,-180.68 41.33,-170.28 -139.13,-345.11 -308.33,-292.54zm-2481.81 -9825.75c20.99,-0.86 62.74,-2.59 83.52,-3.46 7.57,588.54 1.08,1177.5 3.24,1766.26 0,1702.43 0.22,3404.86 -0.21,5107.29 2.16,41.11 -6.5,84.38 6.05,124.41 93.05,98.88 192.79,191.28 286.48,289.73 393.37,2.16 786.96,0.86 1180.33,0.65 37.43,37 75.08,74.21 112.94,111 130.04,-97.81 326.29,-89.37 443.78,24.66 125.07,114.68 136.32,322.4 35.7,456.55 41.55,37.43 75.96,83.74 122.26,115.76 268.73,4.11 537.9,-1.51 806.86,2.38 107.96,92.17 202.95,200.58 305.51,299.46 -0.86,186.73 0.87,373.46 -0.86,560.2 78.33,80.05 157.74,159.25 237.79,237.79 17.32,19.26 45.22,37.43 38.73,68.38 0.66,123.76 -0.21,247.52 -0.21,371.51 172.45,173.31 345.77,345.77 518.21,518.86 22.07,23.8 58.86,10.82 87.42,14.93 1130.98,-0.21 2261.76,-2.16 3392.74,1.08 244.72,248.84 493.12,493.98 739.57,741.09 25.96,20.99 14.71,57.12 17.95,85.9 -2.15,1724.71 1.52,3449.43 -1.94,5174.15 334.51,343.38 679.63,676.59 1014.14,1020.19 -3.24,927.17 -0.22,1854.12 -1.51,2781.28 48.47,48.68 97.58,97.15 145.62,146.48 153.84,-83.74 367.4,-10.6 425.6,157.09 66,160.55 -41.54,362.64 -212.9,393.58 -166.83,43.06 -354.21,-88.5 -358.53,-263.11 -11.69,-84.82 24.23,-165.31 74,-231.52 -55.4,-52.79 -109.93,-106.24 -161.64,-162.28 3.03,-928.89 -0.21,-1857.57 1.52,-2786.46 -336.47,-339.06 -676.17,-674.87 -1012.2,-1014.15 0.87,-1739.21 0.22,-3478.21 0.22,-5217.42 5.84,-28.78 -17.75,-46.95 -35.06,-64.7 -225.89,-223.94 -450.27,-449.4 -675.08,-674.43 -1145.71,-0.87 -2291.19,0 -3436.67,-0.43 -29.21,4.76 -46.74,-21.43 -65.13,-38.09 -180.02,-182.18 -361.99,-362.42 -542.66,-543.74 -1.08,-130.04 1.94,-260.3 -1.3,-390.34 -85.25,-99.75 -186.3,-185.87 -275.67,-282.37 1.96,-186.51 -0.21,-372.81 1.31,-559.11 -87.64,-85.25 -168.99,-178.29 -262.03,-257.06 -268.96,-3.02 -537.91,-0.64 -806.65,-1.07 -47.38,-47.18 -94.12,-94.78 -142.15,-141.08 -83.09,56.91 -187.82,81.57 -286.7,58.21 -133.07,-29 -240.39,-146.49 -257.27,-281.72 -16.87,-91.1 16.02,-181.54 63.83,-257.49 -30.51,-28.56 -55.82,-64.26 -92.17,-85.25 -393.8,-7.14 -789.55,6.71 -1182.27,-6.93 -107.32,-102.77 -210.53,-209.87 -316.12,-314.39 -29.65,-23.58 -15.37,-65.34 -19.04,-97.37 1.29,-2318.23 0.21,-4636.67 0.65,-6954.9zm1812.56 7425.09c-98.01,28.12 -174.61,118.57 -183.05,220.48 -14.71,135.67 100.18,268.09 236.49,273.07 145.41,13.84 281.94,-123.34 265.5,-268.96 -4.55,-152.97 -173.32,-272.63 -318.94,-224.59zm7853.72 12657.87c-139.56,33.75 -196.68,227.84 -94.99,330.62 90.02,108.83 282.59,79.19 335.17,-52.37 79.19,-146.26 -85.69,-332.56 -240.18,-278.25zm-9433.68 -20083.82c21.42,0 64.69,-0.44 86.12,-0.44 2.59,2260.03 -2.38,4520.27 2.59,6780.3 98.02,92.6 191.06,190.19 287.35,284.74 265.7,-0.65 531.41,1.3 797.12,-1.08 255.32,-259 514.54,-514.32 770.72,-772.46 327.81,-1.07 655.61,0.65 983.42,-0.86 143.24,140 283.02,283.66 426.04,424.09 1.09,528.17 0.86,1056.34 0,1584.73 123.77,126.57 250.99,249.69 374.54,376.48 189.98,3.03 379.96,-1.51 569.71,1.95 117.5,102.13 221.57,220.05 334.52,327.59 96.29,-69.67 227.63,-83.52 337.54,-39.38 113.17,46.74 194.74,159.47 205.56,281.29 10.38,84.38 -20.13,166.82 -63.18,238.01 58.2,59.07 117.05,117.49 175.7,176.13 737.39,0 1475.01,0 2212.63,0 29.65,-6.71 46.95,21.63 66.43,38.3 331.05,333.86 665.57,664.7 996.62,998.56 -0.87,1652.88 -0.22,3305.76 -0.22,4958.64 -6.06,28.35 17.96,46.31 35.27,64.27 323.69,320.44 643.5,644.79 967.41,965.24 139.56,-92.83 352.25,-46.95 427.98,106.24 74,131.55 27.92,315.04 -102.55,392.5 -123.77,80.71 -304.01,49.76 -392.73,-68.37 -83.52,-103.86 -80.49,-264.63 1.3,-368.71 -333.21,-338.19 -671.19,-672.05 -1006.35,-1008.3 -26.18,-20.98 -15.37,-56.9 -17.96,-84.82 1.73,-1637.51 -0.43,-3275.03 1.08,-4912.55 -312.66,-316.34 -629.43,-628.57 -942.3,-944.68 -23.59,-19.91 -43.28,-56.27 -79.2,-49.56 -735.02,-0.43 -1470.26,-0.21 -2205.28,-0.21 -66.65,-66.43 -133.07,-133.07 -199.71,-199.5 -127.01,93.69 -314.61,95.21 -435.35,-9.95 -137.4,-113.38 -155.14,-332.57 -46.52,-471.7 -99.1,-101.05 -201.45,-198.84 -298.81,-301.41 -190.41,-5.19 -381.04,1.09 -571.44,-2.81 -150.38,-134.8 -290.38,-283.88 -432.32,-428.2 4.11,-525.58 -1.08,-1051.36 2.6,-1577.15 -127.23,-126.15 -249.27,-260.73 -383.63,-377.79 -299.9,-3.9 -600.01,0.43 -900.12,-2.17 -257.92,254.68 -511.94,513.46 -770.08,767.92 -290.15,14.92 -584.64,1.72 -876.31,6.27 -110.57,-116.62 -235.2,-222.86 -337.11,-345.98 -2.81,-2268.25 -0.43,-4536.71 -1.08,-6805.17zm4737.5 9047.88c-101.26,41.98 -166.38,155.79 -150.59,264.19 15.79,143.68 173.96,253.38 313.96,210.97 133.93,-32.89 222.86,-188.03 175.69,-319.37 -39.38,-137.83 -208.58,-217.24 -339.06,-155.79zm4928.14 7694.47c-154.06,45.45 -183.71,277.4 -45.66,359.19 112.3,85.25 290.38,8.22 311.8,-128.75 37,-145.18 -127.02,-287.99 -266.14,-230.44zm-8183.48 -16742.57c28.78,0 57.56,0 86.55,0.22 1.3,1011.54 -2.82,2023.09 2.16,3034.64 153.41,13.63 300.33,94.34 389.69,220.49 108.62,148 131.34,352.25 60.8,521.24 -72.48,183.92 -255.1,315.04 -451.57,330.4 -2.38,164.66 -0.43,329.1 -1.08,493.55 195.39,196.25 391.64,391.42 587.02,587.67 134.37,-110.78 343.17,-121.6 481.65,-12.12 177.21,128.96 195.39,418.69 34.19,567.77 -143.89,151.03 -411.76,142.16 -546.34,-17.1 -119.88,-127.65 -123.13,-331.05 -28.78,-474.28 -205.34,-204.04 -409.38,-409.38 -614.29,-613.86 -0.44,-176.99 1.08,-353.99 -0.86,-530.98 -139.35,-12.98 -273.5,-77.24 -363.73,-185 -156.87,-172.66 -173.32,-450.7 -45.22,-644.15 88.49,-139.12 243.85,-231.08 408.3,-244.28 3.68,-1011.33 0.43,-2022.66 1.51,-3034.21zm-78.97 3137.85c-185.22,49.77 -328.03,229.58 -328.25,422.36 -8,182.62 112.3,360.7 281.51,427.35 130.91,54.74 287.56,40.24 406.78,-36.57 126.15,-77.68 207.72,-221.79 211.4,-369.79 3.46,-150.38 -74.65,-299.89 -199.93,-383.2 -107.11,-73.13 -246.67,-96.5 -371.51,-60.15zm932.35 2056.85c-106.67,27.7 -194.74,118.79 -213.78,228.06 -32.46,149.51 78.76,308.55 227.62,336.25 175.49,43.27 360.27,-116.84 345.12,-296.22 -0.21,-176.77 -189.33,-316.77 -358.96,-268.09zm3456.57 -5192.97c29.21,-0.86 58.42,-1.51 87.85,-2.16 -1.09,1531.49 2.59,3062.98 -1.73,4594.26 -44.79,41.77 -87.63,85.47 -131.13,128.31 56.27,68.81 98.46,153.41 95.64,244.51 1.3,169.85 -142.59,327.37 -314.61,329.75 -162.27,16.01 -321.74,-106.46 -349.66,-266.57 -34.61,-151.25 52.59,-318.08 196.48,-376.06 96.71,-40.68 208.15,-28.34 301.83,14.71 38.52,-38.29 76.82,-76.81 115.77,-114.67 0.86,-1517.43 1.51,-3034.87 -0.44,-4552.08zm-385.36 4735.34c-81.14,37 -139.78,118.36 -147.35,207.29 -11.69,136.53 108.62,270.03 247.32,265.92 154.7,5.19 284.74,-160.33 240.6,-309.2 -33.75,-143.02 -207.72,-228.7 -340.57,-164.01zm773.97 -4734.26c29.43,-1.3 58.86,-2.59 88.71,-3.68 0.22,1669.98 0,3339.73 0,5009.71 6.28,32.67 -22.94,52.36 -41.97,73.35 -156.23,155.14 -312.45,310.28 -466.94,467.37 -168.56,2.38 -336.89,-1.3 -505.45,1.94 -18.61,115.33 -106.02,217.03 -221.35,242.99 -154.92,43.06 -332.78,-64.26 -360.26,-224.38 -40.03,-162.49 85.03,-340.36 252.29,-353.99 153.84,-24.23 305.96,93.48 327.81,246.02 155.35,3.03 310.93,0.65 466.28,1.52 148.22,-148.22 296.65,-296.44 444.86,-444.65 29,-23.81 14.29,-65.56 18.4,-97.37 -2.38,-1639.68 2.38,-3279.36 -2.38,-4918.83zm-1293.92 5318.9c-143.67,50.2 -172.23,268.09 -41.97,350.1 110.56,87.63 287.77,14.71 313.95,-120.95 39.6,-148.44 -131.34,-296.22 -271.98,-229.15zm1766.7 -5321.49c28.56,-0.22 57.55,-0.22 86.55,-0.22 0,1850.21 0,3700.42 0,5550.64 6.71,30.94 -20.56,49.76 -38.3,69.02 -239.96,237.37 -477.11,477.32 -716.42,715.12 -203.17,0 -406.35,-0.44 -609.31,0 -29.42,-6.06 -47.6,17.52 -65.56,35.48 -91.52,94.56 -186.73,185.22 -277.82,280.2 110.13,139.56 90.23,363.08 -50.63,474.73 -119.87,100.83 -306.61,100.18 -429.5,4.98 -80.06,78.11 -158.39,157.52 -237.37,236.71 95.42,126.36 75.3,324.56 -54.31,419.77 -131.12,109.05 -350.74,71.83 -437.94,-75.09 -83.74,-125.5 -50.41,-309.84 71.41,-398.77 101.91,-80.71 251.21,-76.6 358.53,-8.23 79.19,-79.41 158.38,-158.38 237.36,-237.79 -44.58,-71.62 -75.95,-155.57 -63.61,-241.26 14.5,-153.19 144.32,-287.99 299.03,-300.54 86.11,-11.69 171.36,16.66 243.63,62.1 117.5,-110.14 223.95,-233.68 345.77,-337.76 200.79,-3.9 402.02,-0.22 602.81,-1.52 32.46,6.71 51.28,-24.45 72.71,-42.4 220.05,-220.92 440.1,-442.27 662.1,-661.46 2.17,-1847.84 0.22,-3695.88 0.87,-5543.71zm-1961.22 6620.82c-75.73,23.59 -140.21,83.09 -165.31,158.82 -54.31,134.58 40.25,298.37 180.46,327.37 147.57,41.33 309.84,-85.25 308.11,-237.36 12.12,-163.36 -167.68,-304 -323.26,-248.83zm-690.67 738.49c-138.47,46.3 -179.15,250.77 -62.53,342.08 102.78,108.83 303.79,45.65 336.04,-97.8 50.41,-152.55 -126.37,-312.88 -273.51,-244.28zm3192.82 -7359.53c28.56,0 57.55,0 86.55,0.22 0.22,1135.96 -0.22,2271.92 0.22,3408.1 181.1,19.47 331.05,185.65 324.78,368.92 1.94,180.45 -146.71,341.44 -325,360.91 0.22,456.33 -0.65,912.67 0.65,1369.21 -4.33,29.43 9.3,68.38 -17.53,90.23 -245.36,245.15 -491.17,489.87 -735.45,736.11 0.87,698.02 0.64,1396.04 0,2094.06 -13.42,72.27 63.4,105.81 102.78,152.55 98.88,-63.83 232.17,-74.65 333.43,-9.52 146.48,82.65 188.24,296.86 86.98,430.36 -92.83,135.67 -299.68,164.23 -427.34,61.67 -129.82,-94.56 -150.38,-292.54 -57.12,-419.98 -39.59,-44.79 -89.36,-81.14 -123.77,-130.26 -3.02,-739.78 -0.64,-1479.57 -1.08,-2219.34 250.99,-249.49 499.83,-501.13 751.25,-749.96 1.73,-468.67 -0.43,-937.11 1.08,-1405.78 -84.38,-14.28 -166.6,-50.42 -223.73,-115.98 -127.01,-131.33 -128.52,-360.69 -2.6,-493.33 57.13,-66.64 139.78,-105.37 225.68,-118.57 0.44,-1136.4 0,-2273.01 0.22,-3409.62zm-33.32 3506.99c-108.19,31.59 -189.98,133.28 -198.63,245.37 -13.63,145.4 105.8,285.39 250.99,297.94 172.66,22.07 333.43,-148.86 301.41,-319.8 -22.07,-159.47 -199.28,-276.31 -353.77,-223.51zm-433.4 5129.57c-152.76,57.12 -168.12,293.19 -21.42,366.76 137.83,93.9 336.46,-47.18 306.82,-206.64 -16.66,-127.66 -167.04,-217.24 -285.4,-160.12zm1499.91 -8637.21c29.2,0.87 58.63,1.95 88.28,3.03 -4.55,2974.7 1.51,5949.85 -3.03,8924.56 -42.41,71.62 -128.74,116.62 -170.07,185.21 99.75,127.02 83.09,331.49 -50.2,428.42 -132.64,109.06 -355.5,69.24 -439.67,-80.92 -88.93,-138.48 -35.92,-344.04 111.43,-418.9 93.04,-51.5 212.04,-45.22 303.57,6.92 53.88,-49.55 107.76,-99.09 159.47,-151.24 0.43,-2965.63 0,-5931.46 0.22,-8897.08zm-395.75 9113.23c-141.95,51.71 -175.05,261.17 -51.72,350.96 114.25,103 315.05,22.07 332.35,-128.74 28.78,-149.08 -141.07,-286.05 -280.63,-222.22zm785.22 -9111.28c20.77,-1.08 62.1,-3.25 82.65,-4.33 9.52,963.29 1.52,1927.24 4.11,2890.97 -0.86,2230.17 1.73,4460.55 -1.08,6690.93 120.31,130.69 255.33,248.4 373.03,381.25 2.6,1839.4 0.22,3679.23 1.08,5518.62 429.07,427.55 855.33,857.92 1285.91,1283.74 3.9,625.32 0.65,1250.65 1.73,1875.96 -43.7,52.37 -110.99,92.4 -139.56,152.98 75.08,150.16 6.71,353.56 -153.19,413.49 -158.17,69.46 -358.32,-30.07 -399.21,-196.9 -39.38,-135.88 33.75,-293.4 164.45,-347.93 106.88,-49.98 238.87,-25.53 326.29,51.93 39.16,-36.35 77.03,-74.22 114.24,-112.29 0,-585.73 0,-1171.24 0.22,-1756.75 7.35,-39.6 -29.86,-60.8 -51.93,-85.9 -412.63,-410.67 -823.52,-823.3 -1235.5,-1234.63 -0.65,-1843.5 1.08,-3686.79 -0.86,-5530.3 -125.5,-122.68 -248.61,-247.53 -372.6,-371.73 0.43,-3206.44 0,-6412.67 0.22,-9619.11zm1269.03 18739.71c-103.21,36.99 -160.33,165.95 -114.25,266.57 34.84,90.23 140.86,144.32 234.55,120.08 105.6,-22.93 179.81,-142.59 149.74,-247.09 -29.87,-111.65 -160.12,-189.76 -270.04,-139.56zm-1014.14 -9724.28c-1.73,-3005.65 -0.65,-6011.08 -0.65,-9016.73 21.64,0 64.91,0 86.33,0 0.22,2991.58 1.3,5982.95 -0.43,8974.54 122.9,125.06 246.66,249.69 372.37,371.94 4.99,1740.3 -1.29,3480.81 3.26,5221.32 428.42,424.75 853.59,852.73 1280.5,1279.21 -0.87,1058.93 0.64,2117.86 -0.65,3177.01 -111.87,109.49 -222,220.49 -332.14,331.7 99.75,121.17 112.08,308.99 11.68,433.62 -115.1,159.9 -376.7,174.61 -508.47,27.69 -140.21,-133.71 -120.74,-386.22 34.18,-500.47 112.73,-93.04 274.37,-84.82 398.56,-19.69 100.62,-107.11 206.86,-208.37 310.07,-312.66 -0.87,-1031.45 1.73,-2062.91 -1.3,-3094.36 -419.98,-435.78 -857.71,-857.06 -1281.8,-1290.02 2.17,-1737.49 0.87,-3474.97 0.65,-5212.45 -124.85,-122.9 -247.32,-248.18 -372.16,-370.65zm1079.27 10328.61c-89.36,27.69 -158.39,108.84 -172.24,201.22 -24.23,135.67 88.29,276.74 226.12,284.32 143.02,16.01 279.12,-114.25 269.39,-257.92 -2.82,-156.22 -173.97,-283.01 -323.27,-227.62zm-879.78 -19345.99c29.22,0.87 58.64,1.95 88.28,3.03 -3.46,2946.15 -0.43,5892.51 -1.51,8838.87 167.04,167.26 333.43,335.38 502.2,501.12 2.6,1736.84 -1.73,3473.89 2.17,5210.5 71.83,91.09 164.23,166.39 243.85,251.86 313.09,313.53 627.49,626.19 939.93,940.58 -1.09,1496.44 0.22,2992.88 -0.65,4489.32 -204.26,204.04 -408.95,407.65 -612.12,612.77 65.13,101.05 100.18,224.17 83.74,344.69 -17.97,169.2 -131.99,324.78 -288.65,391.85 -133.07,61.02 -293.18,57.77 -423.66,-8.44 -146.92,-70.97 -252.51,-220.27 -270.04,-382.54 -28.34,-199.72 81.36,-408.52 260.95,-499.62 185.65,-99.09 426.26,-61.23 577.72,83.09 194.52,-195.6 389.91,-390.55 585.29,-585.28 0.87,-1467.24 -0.86,-2934.47 0.65,-4401.92 -374.11,-376.05 -749.73,-750.81 -1125.36,-1125.79 -22.28,-27.26 -65.56,-48.03 -59.72,-89.14 -0.86,-1729.48 1.73,-3459.18 -1.3,-5188.87 -168.99,-165.31 -334.94,-333.65 -501.98,-500.91 0.43,-2961.72 -0.22,-5923.44 0.21,-8885.17zm686.34 20732.08c-212.48,31.81 -374.11,253.38 -333.65,465.42 22.07,142.38 124.64,267.65 260.3,316.99 127.45,51.06 278.69,25.53 386.88,-57.13 134.8,-99.96 197.77,-289.29 141.94,-448.76 -57.99,-186.51 -262.46,-314.61 -455.47,-276.52zm-313.09 -20731.43c28.56,0 57.55,0 86.55,0.22 0.86,2980.33 -1.73,5961.1 1.3,8941.43 132.85,129.61 263.32,261.59 394.01,393.37 -0.65,231.95 -0.65,464.12 -0.21,696.29 -5.85,28.56 18.17,46.52 35.7,64.48 282.58,279.77 562.14,563 844.72,842.77 16.23,18.61 43.5,35.49 39.16,64.7 0,365.24 0.22,730.48 -0.21,1095.72 -131.99,131.34 -263.54,262.89 -394.88,394.66 0.21,511.94 0.21,1023.67 0,1535.39 77.03,77.68 154.92,154.28 231.52,232.39 40.03,-17.96 81.14,-33.11 123.55,-45.23 -63.4,-62.1 -126.36,-124.84 -188.25,-188.46 1.08,-538.33 0.65,-1076.67 0.22,-1614.8 131.12,-132.63 263.97,-263.97 395.53,-396.18 -0.22,-353.12 -0.43,-706.02 0,-1059.14 -282.59,-283.24 -565.6,-566.04 -848.62,-848.63 -23.59,-25.31 -53.44,-46.3 -69.67,-77.03 -3.25,-218.1 -0.43,-436.42 -1.3,-654.52 -167.26,-166.39 -332.35,-334.95 -501.34,-499.39 -4.11,-2958.92 -0.65,-5918.05 -1.73,-8876.96 20.99,-0.86 62.75,-2.59 83.52,-3.46 7.58,1071.7 1.08,2144.05 3.25,3215.96 1.08,1873.58 -2.17,3747.17 1.73,5620.96 168.98,164.67 334.3,333.01 501.34,499.61 -0.44,210.75 -0.44,421.28 0,632.03 -7.14,30.08 21.64,47.82 38.51,67.29 294.7,292.75 587.89,586.81 881.29,880.64 -0.65,369.35 -0.21,738.92 0,1108.27 5.41,49.55 -47.38,73.35 -74,106.89 -105.15,110.35 -223.51,211.18 -319.8,328.02 -3.67,496.58 0,993.37 -1.94,1490.17 -9.74,63.83 59.5,93.69 93.47,136.75 52.36,43.06 89.36,119.44 165.31,121.17 -40.03,-69.46 -107.33,-116.41 -160.55,-174.62 -0.65,-540.29 -1.09,-1080.57 0.21,-1620.86 132.21,-130.04 262.68,-262.24 394.24,-393.15 -0.22,-345.54 0.22,-691.09 -0.22,-1036.64 6.06,-31.59 -21.85,-49.99 -40.03,-69.68 -294.05,-291.45 -585.29,-585.72 -878.91,-877.39 -0.65,-219.4 -1.73,-438.59 0.43,-657.78 -165.74,-169.2 -333.21,-336.68 -502.42,-502.42 -4.1,-2383.57 -0.65,-4767.15 -1.73,-7150.72 2.6,-574.91 -5.19,-1150.24 3.68,-1724.93 20.77,1.08 62.31,3.03 83.09,3.89 0.21,2943.55 -0.22,5886.88 0.21,8830.22 167.91,165.96 332.78,334.73 501.56,499.82 2.38,219.62 2.16,439.24 0.21,658.86 304.44,310.28 614.73,615.15 920.9,923.7 -0.87,381.04 0.42,761.85 -0.66,1142.89 -132.2,130.69 -263.76,262.24 -394.45,394.45 1.09,512.15 -0.64,1024.31 0.65,1536.46 108.19,95.43 192.36,221.58 323.7,287.57 208.59,119.65 306.82,393.8 226.54,619.91 -73.57,232.82 -324.99,390.77 -566.68,354.2 -225.46,-24.23 -421.06,-211.61 -453.73,-435.99 -33.76,-185.86 43.48,-382.55 189.32,-501.12 -81.14,-79.84 -159.9,-162.28 -242.77,-240.39 -4.55,-538.56 -0.44,-1077.55 -1.95,-1616.31 131.34,-132.42 264.2,-263.55 395.53,-396.4 -2.16,-348.8 1.95,-697.59 -2.16,-1046.39 -302.28,-297.51 -600.22,-599.57 -900.98,-898.82 -25.75,-20.55 -15.15,-56.47 -17.75,-84.38 1.08,-209.01 0.22,-418.25 0.66,-627.49 6.92,-32.45 -24.24,-51.27 -41.77,-72.48 -115.97,-115.33 -232.6,-230.01 -346.63,-347.06 -13.84,-45.66 -3.89,-95.43 -6.49,-142.59 0.44,-2946.58 0.22,-5893.16 0.22,-8839.74zm1373.32 14303.61c-183.7,50.42 -319.8,230.65 -318.93,421.06 -2.38,195.82 141.94,381.47 332.35,427.56 132.2,36.35 279.55,1.08 384.93,-85.47 137.18,-109.49 199.93,-305.52 142.37,-472.99 -65.34,-219.62 -320.66,-360.92 -540.72,-290.16zm-279.33 -12681.24c-3.03,-540.72 -1.09,-1081.65 -1.09,-1622.37 21.64,0 64.7,0 86.12,0 0.22,540.5 1.3,1081.22 -0.65,1621.72 170.07,24.02 310.71,185.43 292.11,359.83 -8.23,155.36 -138.26,285.83 -290.59,306.6 -1.3,1414 0,2828.01 -0.65,4242.01 197.11,24.02 342.52,238.23 277.82,429.29 -46.52,175.48 -251.21,280.63 -421.93,220.7 -170.5,-50.2 -271.77,-251.64 -213.77,-418.9 35.7,-121.82 148.86,-207.93 271.11,-230.44 -0.22,-1414.43 0.22,-2828.66 -0.22,-4243.09 -176.13,-23.59 -311.58,-198.85 -283.66,-375.41 15.8,-148 141.29,-265.49 285.4,-289.94zm-48.25 107.97c-72.28,30.29 -129.83,95.85 -146.49,172.88 -34.62,133.08 69.46,276.53 203.82,295.14 164.01,31.16 322.4,-144.54 271.77,-304.44 -33.33,-136.97 -199.06,-225.24 -329.1,-163.58zm-2.61 4907.36c-83.51,35.48 -141.29,118.79 -150.15,208.59 -9.96,130.47 97.58,253.8 228.48,261.81 157.09,15.58 299.25,-149.09 255.11,-301.85 -31.59,-141.29 -200.36,-231.08 -333.44,-168.55zm1217.54 -5769.39c-53.88,-181.76 77.68,-390.77 266.79,-415.88 174.61,-35.7 360.91,92.18 387.31,269.18 40.46,181.1 -98.45,368.91 -279.99,394.44 0,1072.57 -1.08,2145.13 0.65,3217.49 -281.93,285.39 -567.33,567.54 -850.35,851.86 -0.21,417.6 0.87,834.98 -0.43,1252.58 98.23,101.49 200.14,199.29 298.38,300.77 -0.65,1180.97 -0.43,2361.72 0,3542.69 164.45,162.49 326.29,327.58 491.17,489.65 1.3,912.88 0.21,1825.76 0.65,2738.64 161.85,162.93 325.86,323.7 486.4,487.71 14.72,146.71 1.73,297.3 6.06,445.51 -1.3,840.84 2.6,1681.66 -1.73,2522.49 -191.05,187.38 -380.6,376.49 -567.55,567.76 2.82,528.39 0.44,1056.78 1.09,1585.38 68.15,-9.3 137.18,-9.53 205.55,-1.52 -0.22,-548.94 0.43,-1098.09 -0.22,-1647.04 167.26,-173.09 345.77,-336.89 507.4,-514.75 2.81,-1018.26 0.22,-2036.72 1.3,-3054.98 -152.55,-159.04 -318.72,-307.9 -463.9,-472.13 -3.68,-885.62 0.86,-1771.45 -2.17,-2657.07 -150.81,-147.57 -298.59,-298.17 -448.33,-446.6 -0.64,-1187.24 1.09,-2374.48 -0.86,-3561.73 -103.21,-101.26 -204.69,-204.47 -307.25,-306.38 0.86,-440.11 -1.73,-880 1.29,-1319.88 283.45,-300.54 585.51,-587.02 875.24,-883.02 -0.87,-635.28 -0.22,-1270.34 -0.43,-1905.61 -1.95,-172.88 5.62,-346.2 -7.15,-518.65 1.09,-141.72 49.77,-286.48 149.74,-389.47 148.64,-162.06 401.59,-214.21 602.6,-125.28 223.73,90.01 363.07,344.9 319.58,582.04 -33.32,222.87 -221.57,412.63 -445.51,443.57 -203.83,35.92 -420.2,-61.02 -534.88,-232.16 5.84,728.31 0.87,1456.62 2.38,2185.15 -292.1,291.02 -582.48,584 -875.45,874.15 -1.73,415.22 -0.65,830.44 -0.65,1245.67 102.78,101.69 203.61,205.12 307.26,305.95 2.16,1187.24 0.21,2374.48 0.86,3561.73 149.73,148.65 297.73,299.25 448.33,447.03 1.51,741.3 0.22,1482.59 0.65,2223.89 4.1,147.78 -8.44,297.95 6.06,444.22 151.45,154.06 305.08,306.38 458.49,458.92 1.3,1048.55 1.3,2097.31 0.22,3146.08 -168.56,170.72 -344.25,335.81 -506.75,511.51 -3.25,542.88 0,1086.2 -1.52,1629.29 186.95,72.27 331.92,249.7 347.5,452.23 27.7,233.03 -117.27,472.77 -337.54,554.99 -214,84.61 -479.27,17.53 -619.91,-166.82 -157.74,-193.22 -151.68,-495.5 12.12,-683.09 57.55,-69.67 134.8,-121.39 218.75,-154.49 0.64,-551.76 1.52,-1103.73 -0.44,-1655.48 187.6,-190.62 376.93,-379.95 567.56,-567.55 3.24,-960.7 0.86,-1921.19 1.08,-2881.67 -164.45,-162.49 -325.65,-327.59 -490.96,-489 -2.16,-913.53 0,-1826.85 -1.08,-2740.16 -164.22,-161.85 -324.99,-327.37 -490.52,-487.93 -4.11,-1180.1 -0.86,-2360.42 -1.51,-3540.73 -98.67,-100.62 -199.5,-198.85 -297.95,-299.47 0.43,-433.61 0.43,-867.01 0,-1300.62 -9.08,-34.19 21.64,-55.17 41.33,-76.81 257.48,-254.89 511.94,-512.81 769.42,-767.48 16.45,-18.82 43.06,-36.14 38.74,-64.92 0.86,-1051.14 -1.09,-2102.28 1.08,-3153.43 -134.59,-18.82 -255.33,-116.84 -288,-250.77zm260.3 -324.78c-91.96,24.45 -164.66,105.59 -180.24,199.07 -28.56,139.34 90.88,284.74 232.6,286.04 125.29,11.03 240.83,-91.74 257.71,-213.77 27.47,-165.32 -148.44,-322.84 -310.07,-271.34zm799.5 822.65c-211.39,37.22 -388.82,242.77 -362.64,461.53 -9.3,258.13 257.7,471.05 507.18,426.69 169.42,-23.8 317.86,-151.46 366.75,-315.47 48.69,-151.25 4.55,-326.95 -106.45,-440.11 -101.05,-108.41 -259.43,-161.2 -404.84,-132.64zm-844.94 17850.63c-210.09,60.15 -357.88,288 -315.47,504.37 31.59,207.5 224.81,378.65 436.43,375.41 192.57,7.79 377.57,-127.44 434.69,-310.72 58.42,-165.52 1.3,-361.12 -130.69,-474.93 -113.16,-101.49 -279.55,-140.43 -424.96,-94.13zm836.94 -17688.99c171.15,-60.59 372.16,72.48 382.11,253.8 24.67,184.35 -157.52,354.85 -339.71,318.51 -154.92,-20.13 -274.14,-179.81 -245.36,-334.31 13.85,-110.34 96.71,-205.98 202.96,-238zm-11330.42 1763.87c148.43,-53.44 327.16,30.3 375.84,181.33 67.29,171.58 -67.08,386.01 -253.8,389.9 -146.71,18.18 -292.33,-93.26 -314.61,-238.88 -27.7,-138.04 57.98,-288.64 192.57,-332.35zm-326.51 5816.78c148.22,-70.75 343.82,40.03 354.85,204.7 23.59,146.69 -105.59,293.83 -255.1,284.09 -147.79,6.92 -274.36,-141.29 -251.43,-286.04 10.39,-88.28 69.24,-168.78 151.68,-202.75zm3917.88 4825.36c190.2,-61.45 410.68,91.74 408.3,293.62 18.83,181.54 -149.08,349.01 -329.97,335.59 -166.39,0 -311.58,-150.16 -309.85,-315.69 -5.41,-141.07 95.64,-276.95 231.52,-313.52zm5814.19 514.97c141.07,-54.53 318.06,12.33 377.35,154.27 75.73,154.71 -15.36,361.56 -182.62,406.13 -166.83,58.64 -365.24,-66.86 -380.6,-243.63 -21.85,-132.85 60.8,-269.38 185.87,-316.77zm-14794.57 3090.25c-27.26,-196.04 141.08,-389.04 339.27,-386.88 178.73,-11.03 339.93,133.72 361.79,309.2 259.21,-0.65 518.21,1.51 777.43,-1.08 150.8,144.75 296.42,294.91 444.64,442.27 117.49,-98.24 281.07,-134.59 429.51,-98.45 204.69,45.65 365.66,238.01 371.29,448.32 9.09,122.91 -35.05,244.07 -109.48,340.58 98.02,97.58 194.08,197.11 294.27,292.54 83.08,-58.65 189.97,-87.2 290.37,-63.41 154.71,31.38 276.09,177.65 276.74,335.82 7.14,173.53 -132.42,336.89 -305.3,356.15 -172.02,27.26 -350.96,-95.21 -387.53,-265.49 -28.78,-103.64 2.81,-213.78 61.45,-300.54 -98.88,-96.08 -194.09,-196.04 -293.83,-291.24 -122.91,97.36 -289.08,135.23 -441.19,94.77 -151.25,-40.68 -279.99,-157.09 -332.14,-305.09 -59.5,-160.55 -25.74,-348.58 82.01,-480.57 -136.75,-141.51 -277.17,-279.34 -416.52,-418.03 -247.32,0.86 -494.63,0 -741.95,0.43 -24.01,164.88 -171.58,305.96 -341.22,303.79 -178.94,12.55 -345.54,-135.66 -359.61,-313.09zm281.5 -291.03c-101.91,29 -184.35,120.53 -194.73,227.41 -19.48,152.33 118.57,300.76 272.63,289.73 165.52,0.65 297.3,-183.48 241.47,-339.49 -37.87,-131.56 -186.95,-217.02 -319.37,-177.65zm1838.53 648.04c-185.43,53.24 -312.44,253.38 -279.98,443.79 27.91,199.28 223.51,358.1 424.95,338.84 228.5,-9.74 414.58,-245.58 366.11,-470.61 -35.49,-227.2 -291.67,-388.4 -511.08,-312.02zm931.71 1016.53c-94.34,26.83 -168.56,109.27 -186.3,205.55 -31.16,140.43 78.76,290.16 220.7,308.55 163.36,29.87 324.56,-128.52 300.33,-292.1 -16.02,-153.63 -185.87,-272.63 -334.73,-222zm-909.21 -885.83c149.52,-58.43 334.3,41.11 358.75,201.66 40.68,175.26 -130.26,352.04 -306.6,316.33 -138.69,-17.74 -244.5,-157.3 -225.24,-295.56 9.3,-98.88 78.76,-189.76 173.09,-222.43zm3195.2 272.41c172.67,-53.23 367.18,95.42 358.31,276.31 8.87,173.53 -169.64,319.36 -337.97,281.72 -140.64,-23.37 -248.4,-163.58 -232.39,-305.74 7.58,-118.14 97.16,-224.16 212.05,-252.29zm5764.85 311.79c150.38,-67.51 342.95,40.9 362.86,204.7 31.16,156.21 -105.16,317.85 -265.49,307.68 -150.82,7.57 -280.86,-138.7 -263.77,-286.92 7.36,-98.87 73.14,-190.19 166.4,-225.46zm4823.4 754.07c160.55,-52.36 345.77,58.63 374.11,225.03 37.65,161.62 -87.84,336.46 -253.59,349.87 -158.6,25.96 -318.28,-102.78 -329.1,-262.46 -17.74,-137.18 76.16,-275.23 208.58,-312.44zm-2228.21 1516.56c146.7,-56.47 329.53,43.06 352.04,200.8 41.1,169.42 -121.82,344.03 -294.06,314.82 -157.09,-13.63 -273.28,-187.16 -224.16,-337.54 20.99,-82.44 86.55,-150.16 166.18,-178.08z"/>
  </g>
 </g>
</svg>
